<?xml version="1.0" encoding="utf-8"?>
<!-- Generated by IcoMoon.io -->
<!DOCTYPE svg PUBLIC "-//W3C//DTD SVG 1.1//EN" "http://www.w3.org/Graphics/SVG/1.1/DTD/svg11.dtd">
<svg version="1.1" xmlns="http://www.w3.org/2000/svg" xmlns:xlink="http://www.w3.org/1999/xlink" width="1024" height="1024" viewBox="0 0 1024 1024"><g id="icomoon-ignore">
</g>
<path d="M476.858 172.62c-3.48 1.343-7.309 5.221-8.652 8.752l-0.994 2.685v627.432l0.994 2.685c2.238 5.916 8.105 9.795 14.918 9.795 6.215 0 7.608-0.845 18.498-11.089 18.796-17.653 26.503-24.664 59.322-54.052 60.713-54.349 82.643-78.366 99.151-108.55 11.797-21.519 17.415-43.634 17.415-64.054 0-37.336-18.781-69.004-52.919-80.993-11.324-3.973-22.95-5.941-34.717-5.941-29.618 0-60.124 12.464-88.95 36.77l-1.889 1.541v-176.771c0-176.426 0-176.772-0.994-179.458-2.247-6.055-8.606-9.865-15.191-9.865-2.013 0-4.047 0.356-5.992 1.112zM568.304 550.48c19.325 3.914 26.405 13.853 26.405 37.296v0.247c-0.099 46.642-36.697 116.655-92.887 177.519l-2.735 2.983-0.050-89.455v-89.455l3.679-5.519c12.928-19.393 30.283-31.178 50.52-34.26 1.234-0.203 2.838-0.296 4.598-0.296 3.414 0 7.418 0.353 10.469 0.943z"></path>
</svg>
