<?xml version="1.0" encoding="utf-8"?>
<!-- Generated by IcoMoon.io -->
<!DOCTYPE svg PUBLIC "-//W3C//DTD SVG 1.1//EN" "http://www.w3.org/Graphics/SVG/1.1/DTD/svg11.dtd">
<svg version="1.1" xmlns="http://www.w3.org/2000/svg" xmlns:xlink="http://www.w3.org/1999/xlink" width="245" height="1024" viewBox="0 0 245 1024"><g id="icomoon-ignore">
</g>
<path d="M164.784 119.446c-3.395 1.31-7.13 5.093-8.44 8.537-0.97 2.57-0.97 3.298-0.97 103.219 0 55.344-0.097 100.648-0.243 100.648s-15.327 3.686-33.808 8.246c-18.432 4.511-33.614 8.246-33.711 8.246s-0.146-42.443-0.146-94.343c0-17.815 0.013-32.394 0.013-44.344 0-60.346-0.338-53.622-4.427-57.711-3.058-3.039-7.077-4.465-11.061-4.465-6.189 0-12.297 3.439-14.598 9.606-0.97 2.57-0.97 3.298-0.97 100.745v98.175l-22.167 5.432c-29.103 7.13-30.461 7.761-33.129 14.891-0.752 2.038-1.128 19.524-1.128 37.010s0.376 34.972 1.128 37.010c2.134 5.724 7.955 9.556 14.406 9.556 2.571 0 30.946-6.403 40.065-9.022 0.018-0.006 0.036-0.009 0.054-0.009 0.724 0 0.771 5.655 0.771 80.479v80.761l-22.167 5.433c-29.103 7.131-30.461 7.76-33.129 14.891-0.752 2.038-1.128 19.524-1.128 37.010s0.376 34.972 1.128 37.009c2.134 5.723 7.955 9.555 14.406 9.555 2.571 0 30.946-6.402 40.065-9.021 0.016-0.005 0.032-0.008 0.047-0.008 0.731 0 0.778 6.456 0.778 96.291 0 18.239-0.013 33.165-0.013 45.395 0 61.764 0.338 54.802 4.427 58.891 3.058 3.039 7.077 4.465 11.061 4.465 6.189 0 12.297-3.439 14.598-9.606 0.97-2.57 0.97-3.298 0.97-102.977 0-55.248 0.097-100.406 0.242-100.406 0.097 0 15.327-3.735 33.759-8.245 18.481-4.512 33.663-8.246 33.76-8.246 0.048 0 0.145 42.345 0.145 94.1 0 17.766-0.013 32.307-0.013 44.226 0 60.189 0.338 53.498 4.427 57.587 3.059 3.039 7.077 4.465 11.061 4.465 6.189 0 12.297-3.439 14.598-9.606 0.971-2.57 0.971-3.298 0.971-100.503v-97.932l23.185-5.675c27.114-6.694 27.308-6.742 30.606-9.992 4.218-4.218 4.417-2.904 4.417-32.022l-0.002-10.13 0.002-10.13c0-29.117-0.199-27.804-4.417-32.021-3.104-3.056-6.451-4.414-10.962-4.414-2.571 0-33.371 6.985-41.957 9.507-0.019 0.006-0.038 0.009-0.057 0.009-0.769 0-0.815-5.655-0.815-80.479v-80.761l23.185-5.675c30.17-7.421 31.383-7.955 34.050-15.133 0.753-2.038 1.128-19.524 1.128-37.010s-0.376-34.972-1.128-37.009c-2.134-5.723-7.954-9.555-14.406-9.555-2.571 0-33.371 6.985-41.957 9.507-0.016 0.005-0.034 0.008-0.049 0.008-0.777 0-0.823-6.461-0.823-96.534 0-96.041 0-96.817-0.971-99.387-2.191-5.906-8.395-9.623-14.818-9.623-1.964 0-3.948 0.347-5.845 1.085zM155.375 507.197c0 44.431-0.097 80.761-0.243 80.761s-15.327 3.686-33.808 8.246c-18.432 4.511-33.614 8.246-33.711 8.246s-0.146-36.33-0.146-80.713v-80.713l22.216-5.433c12.174-3.007 27.212-6.694 33.323-8.246 6.16-1.552 11.447-2.862 11.786-2.862h0.002c0.435 0 0.581 16.489 0.581 80.713z"></path>
</svg>
