<?xml version="1.0" encoding="UTF-8" standalone="no"?>
<!-- Generated by IcoMoon.io -->

<svg
   xmlns:dc="http://purl.org/dc/elements/1.1/"
   xmlns:cc="http://creativecommons.org/ns#"
   xmlns:rdf="http://www.w3.org/1999/02/22-rdf-syntax-ns#"
   xmlns:svg="http://www.w3.org/2000/svg"
   xmlns="http://www.w3.org/2000/svg"
   xmlns:sodipodi="http://sodipodi.sourceforge.net/DTD/sodipodi-0.dtd"
   xmlns:inkscape="http://www.inkscape.org/namespaces/inkscape"
   version="1.1"
   width="332.16599"
   height="912.16998"
   viewBox="0 0 332.16599 912.16998"
   id="svg4951"
   inkscape:version="0.91 r13725"
   sodipodi:docname="clefs.G.svg">
  <metadata
     id="metadata4960">
    <rdf:RDF>
      <cc:Work
         rdf:about="">
        <dc:format>image/svg+xml</dc:format>
        <dc:type
           rdf:resource="http://purl.org/dc/dcmitype/StillImage" />
        <dc:title></dc:title>
      </cc:Work>
    </rdf:RDF>
  </metadata>
  <defs
     id="defs4958" />
  <sodipodi:namedview
     pagecolor="#ffffff"
     bordercolor="#666666"
     borderopacity="1"
     objecttolerance="10"
     gridtolerance="10"
     guidetolerance="10"
     inkscape:pageopacity="0"
     inkscape:pageshadow="2"
     inkscape:window-width="1163"
     inkscape:window-height="696"
     id="namedview4956"
     showgrid="false"
     fit-margin-top="0"
     fit-margin-left="0"
     fit-margin-right="0"
     fit-margin-bottom="0"
     inkscape:zoom="0.23046875"
     inkscape:cx="165.855"
     inkscape:cy="447.91802"
     inkscape:window-x="178"
     inkscape:window-y="154"
     inkscape:window-maximized="0"
     inkscape:current-layer="svg4951" />
  <g
     id="icomoon-ignore"
     transform="translate(-153.145,-47.748)" />
  <path
     d="m 191.349,0.479 c -4.059,1.492 -20.036,16.866 -29.261,28.154 -30.275,37.036 -46.335,83.399 -46.335,131.817 0,12.455 1.061,25.052 3.221,37.657 0.55,3.313 8.778,42.341 10.489,49.823 0.22,0.997 2.347,10.795 4.695,21.803 l 4.248,20.012 -11.784,11.871 C 92.862,335.54 65.261,368.028 37.936,405.955 12.545,441.194 0,481.286 0,520.845 c 0,46.028 16.993,91.331 50.529,127.402 33.953,36.549 83.791,57.435 132.543,57.435 12.994,0 25.907,-1.485 38.429,-4.55 2.353,-0.576 4.331,-1.026 4.56,-1.026 0.015,0 0.023,0.002 0.025,0.005 0.086,0.11 10.819,50.184 12.17,56.888 2.856,14.026 4.283,27.138 4.283,39.297 0,13.707 -1.813,26.192 -5.444,37.415 -11.694,36.172 -47.765,60.589 -86.438,60.589 -5.149,0 -10.343,-0.43 -15.53,-1.329 -8.472,-1.461 -18.906,-4.75 -24.786,-7.838 l -1.295,-0.66 2.402,-0.029 c 27.659,-0.141 50.184,-23.27 50.184,-51.558 l 0,-0.032 c 0,-32.425 -26.489,-53.576 -54.378,-53.576 -13.776,0 -27.9,5.159 -39.332,16.676 -11.325,11.4 -17.064,25.774 -17.064,40.15 0,12.701 4.475,25.403 13.531,36.06 22.37,26.347 54.441,40.006 86.569,40.006 24.488,0 49.014,-7.94 69.298,-24.249 26.861,-21.62 40.214,-51.901 40.214,-91.406 0,-7.099 -0.428,-14.505 -1.291,-22.202 -1.106,-10.049 -2.481,-17.304 -9.358,-49.382 -3.563,-16.73 -6.485,-30.501 -6.485,-30.612 0,-0.141 1.405,-0.827 3.118,-1.547 51.152,-21.899 85.712,-72.259 85.712,-124.262 0,-1.286 -0.024,-2.579 -0.065,-3.867 -2.182,-66.193 -48.661,-117.671 -113.612,-125.759 -2.013,-0.252 -6.781,-0.371 -11.781,-0.371 -6.05,0 -12.438,0.176 -14.685,0.507 -1.536,0.218 -2.859,0.395 -3.164,0.395 -0.038,0 -0.064,-0.003 -0.067,-0.011 -0.029,-0.029 -4.475,-20.868 -9.908,-46.29 L 169,346.88 l 4.939,-4.774 c 2.732,-2.651 8.668,-8.338 13.221,-12.671 49.682,-47.17 74.414,-96.717 78.283,-156.864 0.22,-3.436 0.328,-6.935 0.328,-10.496 0,-50.738 -21.987,-112.852 -53.353,-148.574 C 204.21,4.14 198.642,0 194.003,0 c -0.914,0 -1.795,0.158 -2.649,0.476 z m 24.291,76.077 c 8.142,1.075 15.019,5.629 18.136,11.95 2.967,6.014 4.777,17.806 4.777,29.161 0,3.651 -0.189,7.258 -0.584,10.613 -4.774,40.629 -28.57,86.314 -67.653,129.841 -3.703,4.139 -16.266,17.062 -16.584,17.062 l -0.005,-0.002 c -0.22,-0.22 -11.486,-53.662 -12.09,-57.329 -1.527,-9.409 -2.283,-18.74 -2.283,-27.891 0,-28.856 7.5,-55.86 21.879,-77.549 14.17,-21.426 35.179,-36.067 51.158,-36.067 1.11,0 2.192,0.072 3.243,0.211 z m -56.535,310.027 c 2.788,13.082 5.216,24.539 5.441,25.451 0.882,3.818 6.681,31.151 6.681,31.436 l 0,0.002 c -0.055,0.029 -0.77,0.275 -1.601,0.55 -45.774,15.248 -74.904,56.951 -74.904,101.618 0,10.147 1.506,20.444 4.653,30.626 8.527,27.573 29.175,50.537 55.507,61.772 2.076,0.885 4.001,1.319 5.707,1.319 3.815,0 6.536,-2.151 7.38,-6.178 0.142,-0.674 0.208,-1.31 0.208,-1.912 0,-2.997 -1.781,-5.231 -6.01,-7.832 -19.763,-12.131 -29.612,-32.485 -29.612,-53.3 0,-21.187 10.207,-42.853 30.551,-56.804 5.399,-3.695 18.399,-9.859 20.648,-9.859 0.151,0 0.257,0.029 0.306,0.086 0.054,0.055 3.227,14.823 7.066,32.818 3.839,17.995 7.207,33.814 7.505,35.196 0.306,1.35 0.715,3.282 0.941,4.279 0.226,0.997 2.317,10.795 4.663,21.803 2.372,11.015 7.506,35.165 11.486,53.662 3.949,18.52 7.175,33.814 7.175,33.979 0,0.77 -12.005,3.973 -19.321,5.189 -6.762,1.117 -13.516,1.666 -20.206,1.666 -52.502,0 -101.138,-33.602 -122.361,-86.709 -7.197,-18.033 -10.745,-37.307 -10.745,-56.797 0,-29.852 8.327,-60.208 24.627,-87.348 8.252,-13.716 29.726,-42.152 49.713,-65.831 9.688,-11.486 28.704,-32.707 29.285,-32.707 0.086,0 2.426,10.709 5.216,23.82 z m 55.868,114.354 c 45.914,5.044 79.332,45.412 79.332,90.419 0,7.24 -0.866,14.601 -2.682,21.953 -5.606,22.69 -20.263,43.613 -40.605,57.91 -3.393,2.407 -10.648,6.831 -11.178,6.831 -0.019,0 -0.029,-0.005 -0.029,-0.016 -0.086,-0.251 -3.674,-16.95 -4.774,-22.14 -0.416,-2.042 -8.062,-37.787 -16.95,-79.382 -8.888,-41.626 -16.174,-75.739 -16.174,-75.825 0,-0.2 1.276,-0.295 3.144,-0.295 2.735,0 6.751,0.2 9.913,0.542 z"
     id="path4954"
     inkscape:connector-curvature="0" />
</svg>
