<?xml version="1.0" encoding="UTF-8" standalone="no"?>
<!-- Generated by IcoMoon.io -->

<svg
   xmlns:dc="http://purl.org/dc/elements/1.1/"
   xmlns:cc="http://creativecommons.org/ns#"
   xmlns:rdf="http://www.w3.org/1999/02/22-rdf-syntax-ns#"
   xmlns:svg="http://www.w3.org/2000/svg"
   xmlns="http://www.w3.org/2000/svg"
   xmlns:sodipodi="http://sodipodi.sourceforge.net/DTD/sodipodi-0.dtd"
   xmlns:inkscape="http://www.inkscape.org/namespaces/inkscape"
   version="1.1"
   width="541.73102"
   height="653.875"
   viewBox="0 0 541.73102 653.875"
   id="svg5560"
   inkscape:version="0.91 r13725"
   sodipodi:docname="clefs.F_change.svg">
  <metadata
     id="metadata5569">
    <rdf:RDF>
      <cc:Work
         rdf:about="">
        <dc:format>image/svg+xml</dc:format>
        <dc:type
           rdf:resource="http://purl.org/dc/dcmitype/StillImage" />
        <dc:title></dc:title>
      </cc:Work>
    </rdf:RDF>
  </metadata>
  <defs
     id="defs5567" />
  <sodipodi:namedview
     pagecolor="#ffffff"
     bordercolor="#666666"
     borderopacity="1"
     objecttolerance="10"
     gridtolerance="10"
     guidetolerance="10"
     inkscape:pageopacity="0"
     inkscape:pageshadow="2"
     inkscape:window-width="1228"
     inkscape:window-height="695"
     id="namedview5565"
     showgrid="false"
     fit-margin-top="0"
     fit-margin-left="0"
     fit-margin-right="0"
     fit-margin-bottom="0"
     inkscape:zoom="0.23046875"
     inkscape:cx="271"
     inkscape:cy="353.236"
     inkscape:window-x="261"
     inkscape:window-y="269"
     inkscape:window-maximized="0"
     inkscape:current-layer="svg5560" />
  <g
     id="icomoon-ignore"
     transform="translate(0,-211.361)" />
  <path
     d="M 190.224,0.334 C 114.556,4.166 51.547,40.69 20.795,98.509 9.596,119.608 4.463,141.612 4.463,162.452 c 0,55.432 36.319,102.624 91.419,102.624 48.806,-0.033 81.267,-40.395 81.267,-82.277 0,-19.93 -7.351,-40.205 -23.788,-56.642 -15.615,-15.614 -36.742,-23.759 -57.697,-23.759 -14.588,0 -29.091,3.947 -41.594,12.07 -1.338,0.863 -2.19,1.425 -2.573,1.425 -0.157,0 -0.236,-0.095 -0.236,-0.303 0,-0.681 0.836,-2.573 2.469,-6.312 24.572,-55.861 84.736,-90.172 142.807,-90.172 24.121,0 47.881,5.921 68.579,18.675 44.285,27.26 69.411,74.553 76.541,144.158 0.436,4.171 0.654,18.262 0.654,32.48 0,14.218 -0.218,28.564 -0.654,33.244 -14.891,161.959 -131.45,304.856 -308.105,377.517 -8.877,3.638 -26.29,10.283 -26.969,10.283 -3.64,0 -6.583,5.328 -6.583,9.956 0,1.602 0.352,3.119 1.151,4.304 1.878,2.746 3.199,4.152 7.233,4.152 4.303,0 11.693,-1.599 26.139,-4.879 214.685,-48.797 382.804,-212.89 410.791,-401.091 1.991,-13.361 2.983,-26.311 2.983,-38.835 0,-65.9 -27.481,-120.002 -81.61,-160.231 C 326.35,18.914 262.437,0 203.584,0 199.097,0 194.639,0.111 190.225,0.334 Z M 505.993,79.93 c -15.944,2.095 -26.533,16.279 -26.533,31.188 0,5.456 1.418,11.01 4.512,16.105 5.99,9.845 16.239,14.677 26.476,14.677 11.149,0 22.285,-5.73 27.899,-16.957 2.325,-4.639 3.384,-9.415 3.384,-14.047 0,-16.552 -13.542,-31.26 -31.346,-31.26 -1.438,0 -2.903,0.095 -4.392,0.294 z m 0,194.022 c -15.944,2.095 -26.533,16.278 -26.533,31.188 0,5.457 1.418,11.01 4.512,16.104 5.99,9.846 16.239,14.678 26.476,14.678 11.149,0 22.285,-5.73 27.899,-16.957 2.325,-4.639 3.384,-9.415 3.384,-14.047 0,-16.552 -13.542,-31.26 -31.346,-31.26 -1.438,0 -2.903,0.096 -4.392,0.295 z"
     id="path5563"
     inkscape:connector-curvature="0" />
</svg>
