<?xml version="1.0" encoding="utf-8"?>
<!-- Generated by IcoMoon.io -->
<!DOCTYPE svg PUBLIC "-//W3C//DTD SVG 1.1//EN" "http://www.w3.org/Graphics/SVG/1.1/DTD/svg11.dtd">
<svg version="1.1" xmlns="http://www.w3.org/2000/svg" xmlns:xlink="http://www.w3.org/1999/xlink" width="368" height="1024" viewBox="0 0 368 1024"><g id="icomoon-ignore">
</g>
<path d="M164.157 340.804c-85.772 8.523-141.355 66.21-141.355 126.519 0 25.501 9.938 51.47 31.733 74.39l4.657 4.899-5.142 3.735c-36.598 26.838-54.050 62.002-54.050 97.029 0 49.044 34.216 97.819 97.996 123.088 27.405 10.863 56.975 16.084 86.204 16.084 56.389 0 111.504-19.432 147.348-55.276 24.885-24.863 37.073-54.523 37.073-83.871 0-36.381-18.728-72.282-55.214-97.975l-3.977-2.813 4.026-4.22c21.436-22.298 32.123-49.152 32.123-76.015 0-27.658-11.329-55.326-33.918-78.038-30.424-30.595-78.475-48.507-127.739-48.507-6.58 0-13.182 0.32-19.765 0.972zM200.003 373.010c42.272 8.868 70.479 49.507 70.479 93.418 0 11.817-2.043 23.87-6.403 35.606-1.843 4.9-6.937 15.522-8.344 17.365l-0.824 1.116-13.097-6.5c-58.885-29.103-107.535-67.277-120.195-94.294-1.378-2.947-2.023-5.919-2.023-8.861 0-20.465 31.213-39.521 64.006-39.521 5.469 0 10.981 0.529 16.401 1.671zM105.514 577.655c3.493 1.601 9.168 3.929 12.612 5.19 76.445 28.182 127.86 67.568 141.441 108.41 1.269 3.823 1.875 7.628 1.875 11.364 0 27.981-33.946 52.183-77.592 52.226-69.758 0-119.376-52.268-119.376-107.758 0-19.633 6.212-39.67 19.941-57.937 3.909-5.244 13.065-14.658 14.162-14.658 0.019 0 0.036 0.003 0.050 0.009 0.34 0.145 3.444 1.552 6.888 3.153zM184.311 819.143v0zM184.311 321.479v0z"></path>
</svg>
