<?xml version="1.0" encoding="UTF-8" standalone="no"?>
<svg id="svg2" xmlns:rdf="http://www.w3.org/1999/02/22-rdf-syntax-ns#" xmlns="http://www.w3.org/2000/svg" height="652.46" width="210.3" version="1.1" xmlns:cc="http://creativecommons.org/ns#" xmlns:dc="http://purl.org/dc/elements/1.1/" viewBox="0 0 210.298 652.46198">
 <path id="path5" d="m9.646 1.113c-3.48 1.343-7.309 5.221-8.652 8.752l-0.994 2.685v627.43l0.994 2.685c2.238 5.916 8.105 9.795 14.918 9.795 6.215 0 7.608-0.845 18.498-11.089 18.796-17.653 26.503-24.664 59.322-54.052 60.713-54.349 82.643-78.366 99.151-108.55 11.797-21.519 17.415-43.634 17.415-64.054 0-37.336-18.781-69.004-52.919-80.993-11.324-3.973-22.95-5.941-34.717-5.941-29.618 0-60.124 12.464-88.95 36.77l-1.889 1.541v-176.77c0-176.43 0-176.77-0.994-179.46-2.239-6.06-8.598-9.87-15.183-9.87-2.013 0-4.047 0.356-5.992 1.112zm91.446 377.86c19.325 3.914 26.405 13.853 26.405 37.296v0.247c-0.1 46.64-36.7 116.65-92.89 177.52l-2.735 2.983-0.05-89.455v-89.455l3.679-5.519c12.928-19.393 30.283-31.178 50.52-34.26 1.234-0.203 2.838-0.296 4.598-0.296 3.414 0 7.418 0.353 10.469 0.943z"/>
</svg>
