<?xml version="1.0" encoding="utf-8"?>
<!-- Generated by IcoMoon.io -->
<!DOCTYPE svg PUBLIC "-//W3C//DTD SVG 1.1//EN" "http://www.w3.org/Graphics/SVG/1.1/DTD/svg11.dtd">
<svg version="1.1" xmlns="http://www.w3.org/2000/svg" xmlns:xlink="http://www.w3.org/1999/xlink" width="180" height="1024" viewBox="0 0 180 1024"><g id="icomoon-ignore">
</g>
<path d="M9.41 174.742c-3.395 1.31-7.13 5.093-8.44 8.537l-0.97 2.619v497.567l0.97 2.619c1.31 3.541 5.045 7.276 8.585 8.585 1.395 0.525 2.301 0.935 4.171 0.935 5.217 0 17.944-3.19 69.751-15.971 35.651-8.828 65.094-16.007 65.385-16.007 0.388 0 0.534 25.854 0.534 90.462 0 15.768-0.010 28.895-0.010 39.839 0 60.797 0.313 54.185 4.424 58.336 3.059 3.039 7.077 4.465 11.061 4.465 6.189 0 12.296-3.439 14.598-9.606l0.971-2.619v-501.448l-0.971-2.618c-1.31-3.541-5.044-7.277-8.585-8.586-1.396-0.524-2.301-0.935-4.172-0.935-5.217 0-17.944 3.19-69.75 15.972-35.651 8.779-65.094 16.006-65.385 16.006-0.388 0-0.534-25.319-0.534-88.522 0-87.747 0-88.523-0.97-91.093-2.192-5.906-8.395-9.623-14.818-9.623-1.964 0-3.948 0.347-5.845 1.085zM149.299 498.805l-0.145 69.993-58.449 14.406c-32.159 7.955-58.74 14.455-59.079 14.455-0.376 0-0.519-8.513-0.519-38.33 0-8.644 0.012-19.078 0.034-31.615l0.146-69.993 58.206-14.358c32.014-7.955 58.595-14.455 59.079-14.455l0.015-0.001c0.587 0 0.75 2.322 0.75 33.49 0 9.32-0.014 21.219-0.037 36.406z"></path>
</svg>
