<?xml version="1.0" encoding="utf-8"?>
<!-- Generated by IcoMoon.io -->
<!DOCTYPE svg PUBLIC "-//W3C//DTD SVG 1.1//EN" "http://www.w3.org/Graphics/SVG/1.1/DTD/svg11.dtd">
<svg version="1.1" xmlns="http://www.w3.org/2000/svg" xmlns:xlink="http://www.w3.org/1999/xlink" width="324" height="1024" viewBox="0 0 324 1024"><g id="icomoon-ignore">
</g>
<path d="M192.387 377.77c-90.171 6.451-178.111 78.384-190.819 156.138-1.056 6.48-1.568 12.784-1.568 18.888 0 59.679 48.952 100.306 117.628 100.306 12.743 0 26.164-1.398 40.078-4.334 82.168-17.268 153.083-82.944 164.385-152.209 1.047-6.43 1.555-12.698 1.555-18.779 0-59.069-48.034-100.482-118.128-100.482-4.296 0-8.675 0.156-13.132 0.472zM276.011 416.768c8.051 2.496 11.802 8.316 11.802 16.522 0 24.965-34.715 72.009-88.634 114.685-52.766 41.788-109.603 67.114-140.375 67.114-14.314 0-22.988-5.48-22.988-17.333 0-0.495 0.015-1.001 0.046-1.518 2.037-35.118 60.146-99.193 128.879-142.12 38.777-24.204 77.133-38.767 100.366-38.767 4.144 0 7.807 0.463 10.906 1.418z"></path>
</svg>
