<?xml version="1.0" encoding="UTF-8" standalone="no"?>
<!-- Generated by IcoMoon.io -->

<svg
   xmlns:dc="http://purl.org/dc/elements/1.1/"
   xmlns:cc="http://creativecommons.org/ns#"
   xmlns:rdf="http://www.w3.org/1999/02/22-rdf-syntax-ns#"
   xmlns:svg="http://www.w3.org/2000/svg"
   xmlns="http://www.w3.org/2000/svg"
   xmlns:sodipodi="http://sodipodi.sourceforge.net/DTD/sodipodi-0.dtd"
   xmlns:inkscape="http://www.inkscape.org/namespaces/inkscape"
   version="1.1"
   width="465.64801"
   height="275.72101"
   viewBox="0 0 465.64801 275.72101"
   id="svg6227"
   inkscape:version="0.91 r13725"
   sodipodi:docname="noteheads.s0.svg">
  <metadata
     id="metadata6236">
    <rdf:RDF>
      <cc:Work
         rdf:about="">
        <dc:format>image/svg+xml</dc:format>
        <dc:type
           rdf:resource="http://purl.org/dc/dcmitype/StillImage" />
        <dc:title></dc:title>
      </cc:Work>
    </rdf:RDF>
  </metadata>
  <defs
     id="defs6234" />
  <sodipodi:namedview
     pagecolor="#ffffff"
     bordercolor="#666666"
     borderopacity="1"
     objecttolerance="10"
     gridtolerance="10"
     guidetolerance="10"
     inkscape:pageopacity="0"
     inkscape:pageshadow="2"
     inkscape:window-width="1315"
     inkscape:window-height="820"
     id="namedview6232"
     showgrid="false"
     fit-margin-top="0"
     fit-margin-left="0"
     fit-margin-right="0"
     fit-margin-bottom="0"
     inkscape:zoom="0.23046875"
     inkscape:cx="232.5"
     inkscape:cy="173.06"
     inkscape:window-x="181"
     inkscape:window-y="151"
     inkscape:window-maximized="0"
     inkscape:current-layer="svg6227" />
  <g
     id="icomoon-ignore"
     transform="translate(0,-409.339)" />
  <path
     d="M 207.117,0.744 C 88.959,7.874 0,66.808 0,137.965 c 0,77.269 102.104,137.756 232.583,137.756 131.129,0 233.065,-61.962 233.065,-137.389 0,-5.569 -0.555,-11.211 -1.696,-16.907 C 449.842,51.059 349.89,0 231.844,0 223.681,0 215.43,0.245 207.116,0.743 Z m 11.642,17.704 c 64.581,9.927 117.576,84.214 117.576,151.138 0,13.852 -2.27,27.388 -7.178,39.972 -12.802,32.876 -39.328,48.775 -69.278,48.775 -35.979,0 -76.899,-22.944 -104.905,-66.965 -17.88,-28.143 -26.019,-57.682 -26.019,-84.268 0,-50.114 28.917,-89.735 76.005,-89.735 4.441,0 9.043,0.352 13.798,1.081 z"
     id="path6230"
     inkscape:connector-curvature="0" />
</svg>
