<?xml version="1.0" encoding="UTF-8" standalone="no"?>
<!-- Generated by IcoMoon.io -->

<svg
   xmlns:dc="http://purl.org/dc/elements/1.1/"
   xmlns:cc="http://creativecommons.org/ns#"
   xmlns:rdf="http://www.w3.org/1999/02/22-rdf-syntax-ns#"
   xmlns:svg="http://www.w3.org/2000/svg"
   xmlns="http://www.w3.org/2000/svg"
   xmlns:sodipodi="http://sodipodi.sourceforge.net/DTD/sodipodi-0.dtd"
   xmlns:inkscape="http://www.inkscape.org/namespaces/inkscape"
   version="1.1"
   width="260.315"
   height="497.664"
   viewBox="0 0 260.315 497.664"
   id="svg4317"
   inkscape:version="0.91 r13725"
   sodipodi:docname="one.svg">
  <metadata
     id="metadata4326">
    <rdf:RDF>
      <cc:Work
         rdf:about="">
        <dc:format>image/svg+xml</dc:format>
        <dc:type
           rdf:resource="http://purl.org/dc/dcmitype/StillImage" />
        <dc:title></dc:title>
      </cc:Work>
    </rdf:RDF>
  </metadata>
  <defs
     id="defs4324" />
  <sodipodi:namedview
     pagecolor="#ffffff"
     bordercolor="#666666"
     borderopacity="1"
     objecttolerance="10"
     gridtolerance="10"
     guidetolerance="10"
     inkscape:pageopacity="0"
     inkscape:pageshadow="2"
     inkscape:window-width="1086"
     inkscape:window-height="576"
     id="namedview4322"
     showgrid="false"
     fit-margin-top="0"
     fit-margin-left="0"
     fit-margin-right="0"
     fit-margin-bottom="0"
     inkscape:zoom="0.23046875"
     inkscape:cx="130"
     inkscape:cy="307.14299"
     inkscape:window-x="208"
     inkscape:window-y="263"
     inkscape:window-maximized="0"
     inkscape:current-layer="svg4317" />
  <g
     id="icomoon-ignore"
     transform="translate(0,-321.479)" />
  <path
     d="m 95.729,27.279 c -3.541,1.65 -4.705,3.638 -50.251,87.843 l -45.255,83.672 -0.194,3.25 C 0.01,202.37 0,202.692 0,203.009 c 0,6.937 4.522,11.55 11.573,11.55 6.742,0 6.791,-0.097 22.652,-24.253 6.936,-10.525 20.324,-30.849 29.734,-45.109 9.41,-14.26 18.869,-28.667 21.051,-32.013 l 3.929,-6.063 0.146,118.11 c 0.019,19.828 0.032,37.215 0.032,52.488 0,101.813 -0.587,109.593 -3.961,119.463 -4.947,14.406 -16.589,25.756 -36.961,36.039 -6.419,3.241 -9.854,7.895 -9.854,12.589 0,2.683 1.122,5.38 3.451,7.832 3.105,3.231 -4.318,3.449 67.723,3.449 11.228,0 24.386,-0.005 39.813,-0.005 15.427,0 28.585,0.005 39.812,0.005 72.042,0 64.618,-0.218 67.724,-3.449 2.329,-2.452 3.451,-5.149 3.451,-7.832 0,-4.694 -3.434,-9.348 -9.854,-12.589 -20.372,-10.283 -32.013,-21.633 -36.961,-36.039 -3.977,-11.544 -3.977,-11.738 -3.977,-204.838 -0.048,-173.794 0.243,-159.001 -3.105,-162.542 -3.085,-3.257 -0.187,-3.447 -39.341,-3.447 l -17.749,0.003 c -49.282,0 -51.755,0.049 -53.599,0.922 z m 34.429,470.385 0,0 z m 0,-497.664 0,0 z"
     id="path4320"
     inkscape:connector-curvature="0" />
</svg>
