<?xml version="1.0" encoding="utf-8"?>
<!-- Generated by IcoMoon.io -->
<!DOCTYPE svg PUBLIC "-//W3C//DTD SVG 1.1//EN" "http://www.w3.org/Graphics/SVG/1.1/DTD/svg11.dtd">
<svg version="1.1" xmlns="http://www.w3.org/2000/svg" xmlns:xlink="http://www.w3.org/1999/xlink" width="356" height="1024" viewBox="0 0 356 1024"><g id="icomoon-ignore">
</g>
<path d="M197.416 340.366c-0.775 0.097-4.268 0.535-7.76 0.971-62.718 7.421-125.871 48.602-159.825 104.238-21.051 34.438-29.831 68.101-29.831 114.229 0 58.158 15.037 103.414 47.923 144.303 31.965 39.678 75.959 68.587 121.263 79.549 7.371 1.785 15.359 2.63 23.74 2.63 51.957 0 118.965-32.475 146.95-74.661 11.338-17.099 17.094-37.469 17.094-57.593 0-16.638-3.935-33.107-11.904-47.42-18.529-33.323-60.923-61.747-111.756-74.94-13.544-3.527-26.637-5.308-39.797-5.308-21.053 0-42.278 4.562-65.799 13.844-3.638 1.455-6.742 2.619-6.937 2.619-0.111 0-0.162-0.518-0.162-1.464 0-6.934 2.757-36.827 5.062-53.346 6.887-49.476 17.801-82.556 33.031-100.164 13.644-15.78 34.69-23.979 58.246-23.979 15.471 0 32.024 3.537 48.272 10.786 2.006 0.895 3.013 1.356 3.013 1.724 0 0.372-1.018 0.65-3.062 1.186-24.568 6.337-38.396 29.468-38.396 52.892 0 16.024 6.471 32.183 20.4 43.197 11.083 8.767 23.355 12.618 35.289 12.618 30.831 0 59.408-25.695 59.408-58.691 0-5.884-0.909-12.001-2.876-18.246-9.168-29.103-56.994-60.68-102.686-67.907-4.523-0.719-21.030-1.304-31.25-1.304-3.589 0-6.403 0.072-7.651 0.236zM205.565 550.831c21.973 3.832 31.674 18.772 38.368 58.885 2.464 14.782 3.719 28.236 3.719 41.738 0 18.397-2.332 36.888-7.115 58.959-8.731 40.551-18.723 51.804-46.032 51.852l-0.366 0.001c-28.194 0-38.33-11.235-47.12-51.853-4.784-22.071-7.115-40.562-7.115-58.959 0-13.502 1.255-26.956 3.719-41.738 6.645-39.822 16.394-54.956 37.931-58.837 2.629-0.49 7.409-0.733 12.167-0.733 4.639 0 9.257 0.23 11.843 0.685zM178.485 819.143v0zM178.485 321.479v0z"></path>
</svg>
