<?xml version="1.0" encoding="UTF-8" standalone="no"?>
<!-- Generated by IcoMoon.io -->

<svg
   xmlns:dc="http://purl.org/dc/elements/1.1/"
   xmlns:cc="http://creativecommons.org/ns#"
   xmlns:rdf="http://www.w3.org/1999/02/22-rdf-syntax-ns#"
   xmlns:svg="http://www.w3.org/2000/svg"
   xmlns="http://www.w3.org/2000/svg"
   xmlns:sodipodi="http://sodipodi.sourceforge.net/DTD/sodipodi-0.dtd"
   xmlns:inkscape="http://www.inkscape.org/namespaces/inkscape"
   version="1.1"
   width="309.10599"
   height="497.664"
   viewBox="0 0 309.10599 497.664"
   id="svg4240"
   inkscape:version="0.91 r13725"
   sodipodi:docname="three.svg">
  <metadata
     id="metadata4249">
    <rdf:RDF>
      <cc:Work
         rdf:about="">
        <dc:format>image/svg+xml</dc:format>
        <dc:type
           rdf:resource="http://purl.org/dc/dcmitype/StillImage" />
        <dc:title></dc:title>
      </cc:Work>
    </rdf:RDF>
  </metadata>
  <defs
     id="defs4247" />
  <sodipodi:namedview
     pagecolor="#ffffff"
     bordercolor="#666666"
     borderopacity="1"
     objecttolerance="10"
     gridtolerance="10"
     guidetolerance="10"
     inkscape:pageopacity="0"
     inkscape:pageshadow="2"
     inkscape:window-width="1655"
     inkscape:window-height="988"
     id="namedview4245"
     showgrid="false"
     fit-margin-top="0"
     fit-margin-left="0"
     fit-margin-right="0"
     fit-margin-bottom="0"
     inkscape:zoom="0.6765538"
     inkscape:cx="37.883612"
     inkscape:cy="271.59829"
     inkscape:window-x="-2"
     inkscape:window-y="-2"
     inkscape:window-maximized="0"
     inkscape:current-layer="svg4240" />
  <g
     id="icomoon-ignore"
     transform="translate(0,-321.479)" />
  <path
     d="m 132.008,18.887 c -0.922,0.097 -4.948,0.535 -8.973,0.971 C 67.399,25.727 13.025,57.353 2.79,89.802 0.886,95.836 0,101.828 0,107.647 c 0,32.199 27.105,59.147 58.699,59.147 6.62,0 13.437,-1.184 20.244,-3.75 23.806,-8.953 36.303,-31.047 36.303,-52.99 0,-18.474 -8.858,-36.841 -27.281,-47.173 l -3.25,-1.843 3.153,-0.583 c 10.011,-1.847 19.437,-2.767 28.252,-2.767 30.986,0 54.408,11.368 69.098,33.762 7.185,10.922 10.776,22.661 10.776,34.783 0,12.426 -3.771,25.256 -11.309,38.023 -16.395,27.793 -42.443,44.188 -72.904,45.935 -11.981,0.679 -16.152,3.832 -16.152,12.126 0,8.149 4.074,11.301 15.667,12.077 44.722,3.007 80.81,42.734 87.892,96.817 0.595,4.553 0.885,9.016 0.885,13.374 0,47.809 -34.848,82.918 -84.19,82.918 -1.563,0 -3.141,-0.035 -4.732,-0.106 -11.305,-0.501 -32.721,-4.602 -32.721,-6.1 0,-0.096 0.088,-0.181 0.272,-0.254 25.035,-10.18 36.509,-31.448 36.509,-52.442 0,-28.021 -20.438,-55.551 -56.347,-55.579 l -0.06,0 c -35.385,0 -58.738,28.951 -58.738,59.03 0,14.624 5.52,29.514 17.86,41.473 34.599,33.532 82.212,51.434 131.707,51.434 22.46,0 45.309,-3.686 67.504,-11.272 57.143,-19.552 91.969,-61.525 91.969,-107.128 0,-8.475 -1.203,-17.075 -3.688,-25.68 C 293.485,279.311 251.48,242.3 195.602,224.015 l -2.619,-0.825 7.712,-2.377 c 51.464,-15.522 91.288,-46.177 102.007,-78.481 1.697,-5.138 2.517,-10.74 2.517,-16.579 0,-16.699 -6.715,-35.339 -18.863,-50.65 -23.767,-29.927 -63.105,-49.281 -112.629,-55.344 -4.62,-0.546 -23.156,-1.064 -34.099,-1.064 -3.647,0 -6.451,0.057 -7.615,0.19 z m 22.543,478.777 0,0 z m 0,-497.664 0,0 z"
     id="path4243"
     inkscape:connector-curvature="0" />
</svg>
