<?xml version="1.0" encoding="utf-8"?>
<!-- Generated by IcoMoon.io -->
<!DOCTYPE svg PUBLIC "-//W3C//DTD SVG 1.1//EN" "http://www.w3.org/Graphics/SVG/1.1/DTD/svg11.dtd">
<svg version="1.1" xmlns="http://www.w3.org/2000/svg" xmlns:xlink="http://www.w3.org/1999/xlink" width="388" height="1024" viewBox="0 0 388 1024"><g id="icomoon-ignore">
</g>
<path d="M177.184 340.852c-89.396 10.187-163.899 90.171-175.104 187.909-1.386 12.164-2.079 24.022-2.079 35.575 0 63.217 20.749 117.255 62.129 161.793 37.228 40.017 84.751 60.025 132.273 60.025 47.524 0 95.047-20.008 132.274-60.025 34.39-37.010 54.472-79.985 60.049-128.489 1.36-11.922 2.036-23.597 2.036-35.003 0-69.161-24.859-128.463-72.95-173.182-33.836-31.519-78.855-49.541-121.853-49.541-5.636 0-11.238 0.309-16.775 0.939zM208.324 364.62c34.585 5.142 43.849 20.566 51.998 86.776 4.826 38.973 7.24 75.389 7.24 111.804s-2.414 72.831-7.24 111.804c-7.566 61.456-15.764 77.754-42.684 84.836-7.936 2.113-15.942 3.124-23.651 3.124-21.319 0-40.389-7.729-49.543-21.265-9.799-14.455-17.656-62.766-22.118-135.815-0.716-11.889-1.050-24.865-1.050-38.384 0-68.056 8.475-149.868 19.482-176.009 7.458-17.688 27.483-28.013 52.681-28.013 4.792 0 9.771 0.373 14.887 1.141zM194.381 819.143v0zM194.381 321.479v0z"></path>
</svg>
