<?xml version="1.0" encoding="UTF-8" standalone="no"?>
<svg
   xmlns:dc="http://purl.org/dc/elements/1.1/"
   xmlns:cc="http://creativecommons.org/ns#"
   xmlns:rdf="http://www.w3.org/1999/02/22-rdf-syntax-ns#"
   xmlns:svg="http://www.w3.org/2000/svg"
   xmlns="http://www.w3.org/2000/svg"
   xmlns:sodipodi="http://sodipodi.sourceforge.net/DTD/sodipodi-0.dtd"
   xmlns:inkscape="http://www.inkscape.org/namespaces/inkscape"
   height="1440"
   width="1440"
   version="1.1"
   viewBox="0 0 1440.0077 1440.0042"
   id="svg4607"
   sodipodi:docname="icon.svg"
   inkscape:version="0.92.2 5c3e80d, 2017-08-06">
  <metadata
     id="metadata4613">
    <rdf:RDF>
      <cc:Work
         rdf:about="">
        <dc:format>image/svg+xml</dc:format>
        <dc:type
           rdf:resource="http://purl.org/dc/dcmitype/StillImage" />
        <dc:title></dc:title>
      </cc:Work>
    </rdf:RDF>
  </metadata>
  <defs
     id="defs4611" />
  <sodipodi:namedview
     pagecolor="#ffffff"
     bordercolor="#666666"
     borderopacity="1"
     objecttolerance="10"
     gridtolerance="10"
     guidetolerance="10"
     inkscape:pageopacity="0"
     inkscape:pageshadow="2"
     inkscape:window-width="1916"
     inkscape:window-height="1058"
     id="namedview4609"
     showgrid="false"
     fit-margin-top="0"
     fit-margin-left="0"
     fit-margin-right="0"
     fit-margin-bottom="0"
     inkscape:zoom="0.20587742"
     inkscape:cx="926.6197"
     inkscape:cy="271.10753"
     inkscape:window-x="0"
     inkscape:window-y="18"
     inkscape:window-maximized="1"
     inkscape:current-layer="svg4607" />
  <rect
     style="opacity:1;fill:#727290;fill-opacity:1;stroke:none;stroke-width:9.81823444;stroke-miterlimit:4;stroke-dasharray:none;stroke-opacity:1"
     id="rect3712"
     width="1440.0077"
     height="1440.0077"
     x="0"
     y="-0.0017500001" />
  <g
     id="g4621"
     transform="matrix(1.4647672,0,0,1.4647672,269.02841,184.21184)"
     style="opacity:0.881;fill:#ffffff">
    <path
       id="path4603"
       d="m 465.79,2.2578 c -3.05,-1.9906 -8.3,-2.8127 -11.86,-1.8644 l -2.69,0.7423 -403.88,290.62 -1.5593,2.317 c -2.1091,3.1316 -2.9592,8.3448 -1.954,11.983 0.38866,1.439 0.58504,2.4138 1.6773,3.9317 3.0472,4.2346 13.07,12.702 53.704,47.288 27.989,23.781 51.013,43.487 51.183,43.723 0.22662,0.31493 -20.674,15.534 -73.116,53.271 -12.799,9.2098 -23.46,16.869 -32.343,23.261 -49.349,35.511 -43.799,31.903 -44.767,37.664 -0.68003,4.258 0.50935,8.3523 2.8363,11.586 3.6149,5.0236 9.9733,7.9719 16.324,6.2384 l 2.693,-0.74156 407.02,-292.89 1.5579,-2.3173 c 2.1091,-3.1316 2.9606,-8.3446 1.9548,-11.983 -0.39006,-1.4392 -0.58505,-2.4138 -1.6779,-3.9325 -3.0472,-4.2346 -13.07,-12.702 -53.704,-47.287 -27.949,-23.81 -51.012,-43.488 -51.182,-43.724 -0.22663,-0.31494 20.239,-15.222 71.541,-52.138 71.224,-51.252 71.854,-51.705 73.373,-53.993 3.5136,-5.2288 2.9076,-12.435 -0.84402,-17.648 -1.1471,-1.5942 -2.5876,-3.0019 -4.2946,-4.1106 z m -181.33,302.82 -56.9,40.77 -45.83,-39.03 c -25.241,-21.457 -46.042,-39.236 -46.24,-39.511 -0.21961,-0.3052 6.6068,-5.3936 30.809,-22.809 7.0163,-5.0488 15.492,-11.133 25.682,-18.438 l 56.898,-40.763 45.651,38.859 c 25.156,21.339 45.957,39.118 46.24,39.511 l 0.01,0.0116 c 0.34286,0.47647 -1.4467,1.965 -26.746,20.17 -7.565,5.4436 -17.232,12.382 -29.572,21.234 z"
       inkscape:connector-curvature="0"
       style="fill:#ffffff" />
    <path
       id="path4605"
       d="m 608.3,200.31 c -3.0463,-1.9906 -8.2985,-2.8126 -11.859,-1.8644 l -2.6924,0.74237 -403.87,290.62 -1.5593,2.3171 c -2.1091,3.1316 -2.9592,8.3448 -1.954,11.983 0.38866,1.439 0.58504,2.4138 1.6773,3.9317 3.0472,4.2346 13.07,12.702 53.704,47.288 27.989,23.781 51.013,43.487 51.183,43.723 0.22663,0.31494 -20.674,15.534 -73.116,53.271 -12.799,9.2098 -23.46,16.869 -32.343,23.261 -49.349,35.511 -43.799,31.903 -44.767,37.664 -0.68002,4.258 0.50935,8.3523 2.8363,11.586 3.6149,5.0236 9.9733,7.9719 16.324,6.2384 l 2.693,-0.74156 407.02,-292.89 1.5579,-2.3173 c 2.109,-3.1316 2.9606,-8.3446 1.9548,-11.983 -0.39005,-1.4392 -0.58504,-2.4138 -1.6779,-3.9325 -3.0472,-4.2346 -13.07,-12.702 -53.704,-47.287 -27.949,-23.81 -51.012,-43.488 -51.182,-43.724 -0.22662,-0.31493 20.239,-15.222 71.541,-52.138 71.224,-51.252 71.854,-51.705 73.373,-53.993 3.5136,-5.2288 2.9076,-12.435 -0.84402,-17.648 -1.1471,-1.5942 -2.5876,-3.0019 -4.2947,-4.1106 z M 426.97,503.14 370.072,543.904 324.24,504.876 C 298.999,483.419 278.198,465.64 278,465.365 c -0.21962,-0.30519 6.6068,-5.3936 30.809,-22.809 7.0163,-5.0488 15.492,-11.133 25.682,-18.438 l 56.898,-40.763 45.651,38.859 c 25.156,21.339 45.957,39.118 46.24,39.511 l 0.01,0.0116 c 0.34285,0.47646 -1.4467,1.965 -26.746,20.17 -7.565,5.4437 -17.232,12.382 -29.572,21.234 z"
       inkscape:connector-curvature="0"
       style="fill:#ffffff" />
  </g>
</svg>
