<?xml version="1.0" encoding="utf-8"?>
<!-- Generated by IcoMoon.io -->
<!DOCTYPE svg PUBLIC "-//W3C//DTD SVG 1.1//EN" "http://www.w3.org/Graphics/SVG/1.1/DTD/svg11.dtd">
<svg version="1.1" xmlns="http://www.w3.org/2000/svg" xmlns:xlink="http://www.w3.org/1999/xlink" width="768" height="768" viewBox="0 0 768 768">
<g id="icomoon-ignore">
</g>
<path d="M127.5 192v448.5h448.5v63h-448.5q-25.5 0-44.25-18.75t-18.75-44.25v-448.5h63zM576 223.5v-63h-127.5v175.5q-21-16.5-48-16.5-33 0-57 24t-24 57 24 56.25 57 23.25 56.25-23.25 23.25-56.25v-177h96zM640.5 64.5q25.5 0 44.25 18.75t18.75 44.25v384q0 25.5-18.75 45t-44.25 19.5h-384q-25.5 0-45-19.5t-19.5-45v-384q0-25.5 19.5-44.25t45-18.75h384z"></path>
</svg>
