<?xml version="1.0" encoding="UTF-8" standalone="no"?>
<svg xmlns:rdf="http://www.w3.org/1999/02/22-rdf-syntax-ns#" xmlns="http://www.w3.org/2000/svg" height="731.57" width="615.77" version="1.1" xmlns:cc="http://creativecommons.org/ns#" xmlns:dc="http://purl.org/dc/elements/1.1/" viewBox="0 0 615.77331 731.57214">
<path d="m465.79 2.2578c-3.05-1.9906-8.3-2.8127-11.86-1.8644l-2.69 0.7423-403.88 290.62-1.5593 2.317c-2.1091 3.1316-2.9592 8.3448-1.954 11.983 0.38866 1.439 0.58504 2.4138 1.6773 3.9317 3.0472 4.2346 13.07 12.702 53.704 47.288 27.989 23.781 51.013 43.487 51.183 43.723 0.22662 0.31493-20.674 15.534-73.116 53.271-12.799 9.2098-23.46 16.869-32.343 23.261-49.349 35.511-43.799 31.903-44.767 37.664-0.68003 4.258 0.50935 8.3523 2.8363 11.586 3.6149 5.0236 9.9733 7.9719 16.324 6.2384l2.693-0.74156 407.02-292.89 1.5579-2.3173c2.1091-3.1316 2.9606-8.3446 1.9548-11.983-0.39006-1.4392-0.58505-2.4138-1.6779-3.9325-3.0472-4.2346-13.07-12.702-53.704-47.287-27.949-23.81-51.012-43.488-51.182-43.724-0.22663-0.31494 20.239-15.222 71.541-52.138 71.224-51.252 71.854-51.705 73.373-53.993 3.5136-5.2288 2.9076-12.435-0.84402-17.648-1.1471-1.5942-2.5876-3.0019-4.2946-4.1106zm-181.33 302.82-56.9 40.77-45.83-39.03c-25.241-21.457-46.042-39.236-46.24-39.511-0.21961-0.3052 6.6068-5.3936 30.809-22.809 7.0163-5.0488 15.492-11.133 25.682-18.438l56.898-40.763 45.651 38.859c25.156 21.339 45.957 39.118 46.24 39.511l0.01 0.0116c0.34286 0.47647-1.4467 1.965-26.746 20.17-7.565 5.4436-17.232 12.382-29.572 21.234z"/>
<path d="m608.3 200.31c-3.0463-1.9906-8.2985-2.8126-11.859-1.8644l-2.6924 0.74237-403.87 290.62-1.5593 2.3171c-2.1091 3.1316-2.9592 8.3448-1.954 11.983 0.38866 1.439 0.58504 2.4138 1.6773 3.9317 3.0472 4.2346 13.07 12.702 53.704 47.288 27.989 23.781 51.013 43.487 51.183 43.723 0.22663 0.31494-20.674 15.534-73.116 53.271-12.799 9.2098-23.46 16.869-32.343 23.261-49.349 35.511-43.799 31.903-44.767 37.664-0.68002 4.258 0.50935 8.3523 2.8363 11.586 3.6149 5.0236 9.9733 7.9719 16.324 6.2384l2.693-0.74156 407.02-292.89 1.5579-2.3173c2.109-3.1316 2.9606-8.3446 1.9548-11.983-0.39005-1.4392-0.58504-2.4138-1.6779-3.9325-3.0472-4.2346-13.07-12.702-53.704-47.287-27.949-23.81-51.012-43.488-51.182-43.724-0.22662-0.31493 20.239-15.222 71.541-52.138 71.224-51.252 71.854-51.705 73.373-53.993 3.5136-5.2288 2.9076-12.435-0.84402-17.648-1.1471-1.5942-2.5876-3.0019-4.2947-4.1106zm-181.33 302.83-56.898 40.764-45.832-39.028c-25.241-21.457-46.042-39.236-46.24-39.511-0.21962-0.30519 6.6068-5.3936 30.809-22.809 7.0163-5.0488 15.492-11.133 25.682-18.438l56.898-40.763 45.651 38.859c25.156 21.339 45.957 39.118 46.24 39.511l0.01 0.0116c0.34285 0.47646-1.4467 1.965-26.746 20.17-7.565 5.4437-17.232 12.382-29.572 21.234z"/>
</svg>
