<?xml version="1.0" encoding="utf-8"?>
<!-- Generated by IcoMoon.io -->
<!DOCTYPE svg PUBLIC "-//W3C//DTD SVG 1.1//EN" "http://www.w3.org/Graphics/SVG/1.1/DTD/svg11.dtd">
<svg version="1.1" xmlns="http://www.w3.org/2000/svg" xmlns:xlink="http://www.w3.org/1999/xlink" width="768" height="768" viewBox="0 0 768 768">
<g id="icomoon-ignore">
</g>
<path d="M256.5 480q0-39 28.5-67.5t67.5-28.5q10.5 0 31.5 6v-198h160.5v64.5h-96v225q0 39-28.5 66.75t-67.5 27.75-67.5-28.5-28.5-67.5zM672 607.5v-447h-576v447h576zM672 96q25.5 0 45 19.5t19.5 45v447q0 25.5-19.5 45t-45 19.5h-576q-25.5 0-45-19.5t-19.5-45v-447q0-25.5 19.5-45t45-19.5h576z"></path>
</svg>
