<?xml version="1.0" encoding="UTF-8" standalone="no"?>
<svg
   xmlns:dc="http://purl.org/dc/elements/1.1/"
   xmlns:cc="http://creativecommons.org/ns#"
   xmlns:rdf="http://www.w3.org/1999/02/22-rdf-syntax-ns#"
   xmlns:svg="http://www.w3.org/2000/svg"
   xmlns="http://www.w3.org/2000/svg"
   xmlns:sodipodi="http://sodipodi.sourceforge.net/DTD/sodipodi-0.dtd"
   xmlns:inkscape="http://www.inkscape.org/namespaces/inkscape"
   height="2800"
   width="4400"
   version="1.1"
   viewBox="0 0 4400.0235 2800.0082"
   id="svg4607"
   sodipodi:docname="banner.svg"
   inkscape:version="0.92.2 5c3e80d, 2017-08-06"
   inkscape:export-filename="/home/leafo/code/sites/sightreading.training/chrome_app/banner_440.png"
   inkscape:export-xdpi="9.6000004"
   inkscape:export-ydpi="9.6000004">
  <metadata
     id="metadata4613">
    <rdf:RDF>
      <cc:Work
         rdf:about="">
        <dc:format>image/svg+xml</dc:format>
        <dc:type
           rdf:resource="http://purl.org/dc/dcmitype/StillImage" />
        <dc:title></dc:title>
      </cc:Work>
    </rdf:RDF>
  </metadata>
  <defs
     id="defs4611" />
  <sodipodi:namedview
     pagecolor="#ffffff"
     bordercolor="#666666"
     borderopacity="1"
     objecttolerance="10"
     gridtolerance="10"
     guidetolerance="10"
     inkscape:pageopacity="0"
     inkscape:pageshadow="2"
     inkscape:window-width="1916"
     inkscape:window-height="1058"
     id="namedview4609"
     showgrid="false"
     fit-margin-top="0"
     fit-margin-left="0"
     fit-margin-right="0"
     fit-margin-bottom="0"
     inkscape:zoom="0.20587742"
     inkscape:cx="2379.4022"
     inkscape:cy="1048.269"
     inkscape:window-x="0"
     inkscape:window-y="18"
     inkscape:window-maximized="1"
     inkscape:current-layer="svg4607" />
  <rect
     style="opacity:1;fill:#727290;fill-opacity:1;stroke:none;stroke-width:23.93185043;stroke-miterlimit:4;stroke-dasharray:none;stroke-opacity:1"
     id="rect3712"
     width="4400.0234"
     height="2800.0149"
     x="0"
     y="-0.0033774162"
     inkscape:export-filename="/home/leafo/code/sites/sightreading.training/chrome_app/icon_128.png"
     inkscape:export-xdpi="8.5299997"
     inkscape:export-ydpi="8.5299997" />
  <g
     id="g389"
     transform="translate(0.87761383,-20.282309)">
    <g
       inkscape:export-ydpi="8.5299997"
       inkscape:export-xdpi="8.5299997"
       inkscape:export-filename="/home/leafo/code/sites/sightreading.training/chrome_app/icon_128.png"
       style="opacity:0.881;fill:#ffffff"
       transform="matrix(1.4647672,0,0,1.4647672,1706.7848,723.3379)"
       id="g4621">
      <path
         style="fill:#ffffff"
         inkscape:connector-curvature="0"
         d="m 465.79,2.2578 c -3.05,-1.9906 -8.3,-2.8127 -11.86,-1.8644 l -2.69,0.7423 -403.88,290.62 -1.5593,2.317 c -2.1091,3.1316 -2.9592,8.3448 -1.954,11.983 0.38866,1.439 0.58504,2.4138 1.6773,3.9317 3.0472,4.2346 13.07,12.702 53.704,47.288 27.989,23.781 51.013,43.487 51.183,43.723 0.22662,0.31493 -20.674,15.534 -73.116,53.271 -12.799,9.2098 -23.46,16.869 -32.343,23.261 -49.349,35.511 -43.799,31.903 -44.767,37.664 -0.68003,4.258 0.50935,8.3523 2.8363,11.586 3.6149,5.0236 9.9733,7.9719 16.324,6.2384 l 2.693,-0.74156 407.02,-292.89 1.5579,-2.3173 c 2.1091,-3.1316 2.9606,-8.3446 1.9548,-11.983 -0.39006,-1.4392 -0.58505,-2.4138 -1.6779,-3.9325 -3.0472,-4.2346 -13.07,-12.702 -53.704,-47.287 -27.949,-23.81 -51.012,-43.488 -51.182,-43.724 -0.22663,-0.31494 20.239,-15.222 71.541,-52.138 71.224,-51.252 71.854,-51.705 73.373,-53.993 3.5136,-5.2288 2.9076,-12.435 -0.84402,-17.648 -1.1471,-1.5942 -2.5876,-3.0019 -4.2946,-4.1106 z m -181.33,302.82 -56.9,40.77 -45.83,-39.03 c -25.241,-21.457 -46.042,-39.236 -46.24,-39.511 -0.21961,-0.3052 6.6068,-5.3936 30.809,-22.809 7.0163,-5.0488 15.492,-11.133 25.682,-18.438 l 56.898,-40.763 45.651,38.859 c 25.156,21.339 45.957,39.118 46.24,39.511 l 0.01,0.0116 c 0.34286,0.47647 -1.4467,1.965 -26.746,20.17 -7.565,5.4436 -17.232,12.382 -29.572,21.234 z"
         id="path4603" />
      <path
         style="fill:#ffffff"
         inkscape:connector-curvature="0"
         d="m 608.3,200.31 c -3.0463,-1.9906 -8.2985,-2.8126 -11.859,-1.8644 l -2.6924,0.74237 -403.87,290.62 -1.5593,2.3171 c -2.1091,3.1316 -2.9592,8.3448 -1.954,11.983 0.38866,1.439 0.58504,2.4138 1.6773,3.9317 3.0472,4.2346 13.07,12.702 53.704,47.288 27.989,23.781 51.013,43.487 51.183,43.723 0.22663,0.31494 -20.674,15.534 -73.116,53.271 -12.799,9.2098 -23.46,16.869 -32.343,23.261 -49.349,35.511 -43.799,31.903 -44.767,37.664 -0.68002,4.258 0.50935,8.3523 2.8363,11.586 3.6149,5.0236 9.9733,7.9719 16.324,6.2384 l 2.693,-0.74156 407.02,-292.89 1.5579,-2.3173 c 2.109,-3.1316 2.9606,-8.3446 1.9548,-11.983 -0.39005,-1.4392 -0.58504,-2.4138 -1.6779,-3.9325 -3.0472,-4.2346 -13.07,-12.702 -53.704,-47.287 -27.949,-23.81 -51.012,-43.488 -51.182,-43.724 -0.22662,-0.31493 20.239,-15.222 71.541,-52.138 71.224,-51.252 71.854,-51.705 73.373,-53.993 3.5136,-5.2288 2.9076,-12.435 -0.84402,-17.648 -1.1471,-1.5942 -2.5876,-3.0019 -4.2947,-4.1106 z M 426.97,503.14 370.072,543.904 324.24,504.876 C 298.999,483.419 278.198,465.64 278,465.365 c -0.21962,-0.30519 6.6068,-5.3936 30.809,-22.809 7.0163,-5.0488 15.492,-11.133 25.682,-18.438 l 56.898,-40.763 45.651,38.859 c 25.156,21.339 45.957,39.118 46.24,39.511 l 0.01,0.0116 c 0.34285,0.47646 -1.4467,1.965 -26.746,20.17 -7.565,5.4437 -17.232,12.382 -29.572,21.234 z"
         id="path4605" />
    </g>
    <g
       style="fill:#ffffff"
       transform="matrix(0.86673173,0,0,0.86673173,1230.8426,-126.94972)"
       id="g362">
      <path
         inkscape:connector-curvature="0"
         id="path4642"
         style="font-style:normal;font-variant:normal;font-weight:900;font-stretch:normal;font-size:432.58425903px;line-height:56.32607651px;font-family:Raleway;-inkscape-font-specification:'Raleway Heavy';letter-spacing:0px;word-spacing:0px;fill:#ffffff;fill-opacity:1;stroke:none;stroke-width:1.75956321px;stroke-linecap:butt;stroke-linejoin:miter;stroke-opacity:1"
         d="m -817.06564,2553.945 q -10.13508,-6.081 -20.94584,-10.8108 -9.12158,-4.054 -20.608,-7.4323 -11.14859,-3.7162 -21.95935,-3.7162 -8.78374,0 -14.18912,2.7026 -5.06754,2.7027 -5.06754,9.1216 0,4.7297 3.04052,7.7703 3.04053,3.0405 8.78374,5.7432 5.74322,2.3648 13.85128,4.7297 8.44591,2.3648 18.91883,5.7432 16.55397,5.0675 29.72958,11.1486 13.51345,6.081 22.97286,14.5269 9.45941,8.1081 14.52695,19.9324 5.06752,11.8242 5.06752,28.716 0,21.6215 -8.10805,36.4863 -7.77023,14.527 -20.94583,23.3107 -12.83778,8.7838 -29.39175,12.8378 -16.21614,3.7162 -32.77011,3.7162 -13.1756,0 -27.02689,-2.027 -13.85128,-2.027 -27.70256,-5.7432 -13.51345,-3.7162 -26.35122,-8.7838 -12.49994,-5.0675 -23.31069,-11.4864 l 28.37824,-57.77 q 11.82425,7.4324 24.66203,13.1756 10.81076,5.0676 24.3242,9.1216 13.85129,4.054 28.04041,4.054 10.81075,0 14.86478,-2.7027 4.39187,-3.0405 4.39187,-7.7702 0,-5.0675 -4.39187,-8.4459 -4.05403,-3.7162 -11.48642,-6.4189 -7.4324,-2.7027 -17.22965,-5.4054 -9.45941,-2.7026 -20.27016,-6.4188 -15.8783,-5.4054 -27.36474,-11.4865 -11.48642,-6.4189 -18.91882,-14.1891 -7.43239,-8.1081 -11.14859,-18.2431 -3.37836,-10.1351 -3.37836,-23.3107 0,-19.9324 7.09456,-35.135 7.43239,-15.2026 19.93233,-25.3377 12.49994,-10.1351 28.37824,-15.2026 16.21613,-5.4054 34.12145,-5.4054 13.17559,0 25.67554,2.7027 12.49994,2.3648 23.98636,6.4189 11.82427,3.7162 21.95935,8.4459 10.13509,4.3919 18.24315,8.4459 z" />
      <path
         inkscape:connector-curvature="0"
         id="path4644"
         style="font-style:normal;font-variant:normal;font-weight:900;font-stretch:normal;font-size:432.58425903px;line-height:56.32607651px;font-family:Raleway;-inkscape-font-specification:'Raleway Heavy';letter-spacing:0px;word-spacing:0px;fill:#ffffff;fill-opacity:1;stroke:none;stroke-width:1.75956321px;stroke-linecap:butt;stroke-linejoin:miter;stroke-opacity:1"
         d="M -757.82693,2715.4307 V 2475.567 h 65.87809 v 239.8637 z" />
      <path
         inkscape:connector-curvature="0"
         id="path4646"
         style="font-style:normal;font-variant:normal;font-weight:900;font-stretch:normal;font-size:432.58425903px;line-height:56.32607651px;font-family:Raleway;-inkscape-font-specification:'Raleway Heavy';letter-spacing:0px;word-spacing:0px;fill:#ffffff;fill-opacity:1;stroke:none;stroke-width:1.75956321px;stroke-linecap:butt;stroke-linejoin:miter;stroke-opacity:1"
         d="m -492.09644,2695.4983 q -25.67551,21.6215 -59.12131,21.6215 -23.31069,0 -44.5944,-8.108 -21.28369,-8.4459 -37.16199,-24.3242 -15.8782,-15.8783 -25.3377,-38.8512 -9.4594,-22.9728 -9.4594,-52.3646 0,-25.3377 9.4594,-46.9592 9.4595,-21.9593 26.0134,-37.8376 16.554,-16.2162 38.8512,-25.3378 22.635,-9.4594 48.6483,-9.4594 16.21619,0 31.08099,3.7162 14.8648,3.3784 27.36471,10.473 12.8378,6.7567 22.97289,16.5539 10.13501,9.4594 16.55391,21.6215 l -48.9862,37.4998 q -7.0945,-14.1891 -21.28371,-22.635 -14.18909,-8.7837 -30.0674,-8.7837 -11.82419,0 -21.62149,4.7297 -9.7972,4.7297 -16.8918,13.1756 -7.0946,8.4459 -11.1486,20.2702 -4.0541,11.4864 -4.0541,25.3377 0,14.1891 4.0541,25.6755 4.054,11.4864 11.1486,19.9324 7.4324,8.108 17.56749,12.8377 10.13501,4.3919 22.635,4.3919 28.71611,0 50.6754,-23.6485 h -41.5539 v -47.2971 h 98.64821 v 127.7021 h -54.3916 z" />
      <path
         inkscape:connector-curvature="0"
         id="path4648"
         style="font-style:normal;font-variant:normal;font-weight:900;font-stretch:normal;font-size:432.58425903px;line-height:56.32607651px;font-family:Raleway;-inkscape-font-specification:'Raleway Heavy';letter-spacing:0px;word-spacing:0px;fill:#ffffff;fill-opacity:1;stroke:none;stroke-width:1.75956321px;stroke-linecap:butt;stroke-linejoin:miter;stroke-opacity:1"
         d="m -193.35425,2475.567 v 239.8637 h -65.8781 v -93.9185 h -80.405 v 93.9185 h -65.878 V 2475.567 h 65.878 v 88.5131 h 80.405 v -88.5131 z" />
      <path
         inkscape:connector-curvature="0"
         id="path4650"
         style="font-style:normal;font-variant:normal;font-weight:900;font-stretch:normal;font-size:432.58425903px;line-height:56.32607651px;font-family:Raleway;-inkscape-font-specification:'Raleway Heavy';letter-spacing:0px;word-spacing:0px;fill:#ffffff;fill-opacity:1;stroke:none;stroke-width:1.75956321px;stroke-linecap:butt;stroke-linejoin:miter;stroke-opacity:1"
         d="m 34.685091,2532.9992 h -68.91854 v 182.4315 h -65.878001 v -182.4315 h -69.2565 V 2475.567 H 34.685091 Z" />
      <path
         inkscape:connector-curvature="0"
         id="path4652"
         style="font-style:normal;font-variant:normal;font-weight:900;font-stretch:normal;font-size:432.58425903px;line-height:56.32607651px;font-family:Raleway;-inkscape-font-specification:'Raleway Heavy';letter-spacing:0px;word-spacing:0px;fill:#ffffff;fill-opacity:1;stroke:none;stroke-width:1.75956321px;stroke-linecap:butt;stroke-linejoin:miter;stroke-opacity:1"
         d="M 58.349491,2715.4307 V 2475.567 H 168.48399 q 17.5675,0 32.4324,7.4324 14.8647,7.0946 25.3376,18.9188 10.8108,11.4865 16.8918,26.6891 6.0812,14.8648 6.0812,30.0674 0,20.9458 -9.1216,39.189 -9.1216,17.9053 -25.3377,29.3917 l 50.6753,88.1753 h -74.324 l -42.2294,-73.6483 h -24.662 v 73.6483 z m 65.878099,-131.0805 h 41.5537 q 6.0811,0 11.1487,-6.7567 5.4054,-6.7567 5.4054,-18.9188 0,-12.4999 -6.081,-18.9188 -6.0812,-6.7567 -12.1622,-6.7567 h -39.8646 z" />
      <path
         inkscape:connector-curvature="0"
         id="path4654"
         style="font-style:normal;font-variant:normal;font-weight:900;font-stretch:normal;font-size:432.58425903px;line-height:56.32607651px;font-family:Raleway;-inkscape-font-specification:'Raleway Heavy';letter-spacing:0px;word-spacing:0px;fill:#ffffff;fill-opacity:1;stroke:none;stroke-width:1.75956321px;stroke-linecap:butt;stroke-linejoin:miter;stroke-opacity:1"
         d="m 457.59789,2657.9985 v 57.4322 h -170.945 V 2475.567 h 167.9045 v 57.4322 h -102.0266 v 33.7836 h 87.1618 v 53.3781 h -87.1618 v 37.8376 z" />
      <path
         inkscape:connector-curvature="0"
         id="path4656"
         style="font-style:normal;font-variant:normal;font-weight:900;font-stretch:normal;font-size:432.58425903px;line-height:56.32607651px;font-family:Raleway;-inkscape-font-specification:'Raleway Heavy';letter-spacing:0px;word-spacing:0px;fill:#ffffff;fill-opacity:1;stroke:none;stroke-width:1.75956321px;stroke-linecap:butt;stroke-linejoin:miter;stroke-opacity:1"
         d="m 552.72459,2475.567 h 60.1348 l 83.1076,239.8637 h -66.8915 l -14.527,-46.9593 h -63.8509 l -14.1891,46.9593 h -67.2295 z m 51.3511,148.9858 -21.2838,-74.324 -22.2972,74.324 z" />
      <path
         inkscape:connector-curvature="0"
         id="path4658"
         style="font-style:normal;font-variant:normal;font-weight:900;font-stretch:normal;font-size:432.58425903px;line-height:56.32607651px;font-family:Raleway;-inkscape-font-specification:'Raleway Heavy';letter-spacing:0px;word-spacing:0px;fill:#ffffff;fill-opacity:1;stroke:none;stroke-width:1.75956321px;stroke-linecap:butt;stroke-linejoin:miter;stroke-opacity:1"
         d="M 714.22669,2715.4307 V 2475.567 h 92.2292 q 29.7297,0 52.3646,9.4594 22.635,9.4594 37.8377,25.6756 15.2026,16.2161 22.9728,38.1755 7.7703,21.6215 7.7703,46.2835 0,27.3647 -8.7838,49.6619 -8.4458,21.9594 -24.3241,37.8377 -15.8784,15.5404 -38.1755,24.3242 -22.2972,8.4459 -49.662,8.4459 z m 146.2829,-120.2697 q 0,-13.8513 -3.716,-25.3377 -3.7162,-11.4864 -10.8109,-19.5945 -6.7567,-8.1081 -16.8917,-12.4999 -10.1351,-4.7297 -22.6351,-4.7297 h -26.3511 v 124.9993 h 26.3511 q 12.8379,0 22.973,-4.7297 10.1349,-4.7297 16.8916,-13.1756 7.0947,-8.4459 10.4731,-19.9323 3.716,-11.4864 3.716,-24.9999 z" />
      <path
         inkscape:connector-curvature="0"
         id="path4660"
         style="font-style:normal;font-variant:normal;font-weight:900;font-stretch:normal;font-size:432.58425903px;line-height:56.32607651px;font-family:Raleway;-inkscape-font-specification:'Raleway Heavy';letter-spacing:0px;word-spacing:0px;fill:#ffffff;fill-opacity:1;stroke:none;stroke-width:1.75956321px;stroke-linecap:butt;stroke-linejoin:miter;stroke-opacity:1"
         d="M 956.38639,2715.4307 V 2475.567 h 65.87821 v 239.8637 z" />
      <path
         inkscape:connector-curvature="0"
         id="path4662"
         style="font-style:normal;font-variant:normal;font-weight:900;font-stretch:normal;font-size:432.58425903px;line-height:56.32607651px;font-family:Raleway;-inkscape-font-specification:'Raleway Heavy';letter-spacing:0px;word-spacing:0px;fill:#ffffff;fill-opacity:1;stroke:none;stroke-width:1.75956321px;stroke-linecap:butt;stroke-linejoin:miter;stroke-opacity:1"
         d="m 1129.158,2597.5259 v 117.9048 h -65.8782 V 2475.567 h 51.3512 l 96.2833,121.9589 V 2475.567 h 65.878 v 239.8637 h -52.3645 z" />
      <path
         inkscape:connector-curvature="0"
         id="path4664"
         style="font-style:normal;font-variant:normal;font-weight:900;font-stretch:normal;font-size:432.58425903px;line-height:56.32607651px;font-family:Raleway;-inkscape-font-specification:'Raleway Heavy';letter-spacing:0px;word-spacing:0px;fill:#ffffff;fill-opacity:1;stroke:none;stroke-width:1.75956321px;stroke-linecap:butt;stroke-linejoin:miter;stroke-opacity:1"
         d="m 1480.8138,2695.4983 q -25.6755,21.6215 -59.1213,21.6215 -23.3106,0 -44.5943,-8.108 -21.2837,-8.4459 -37.1619,-24.3242 -15.8784,-15.8783 -25.3379,-38.8512 -9.4593,-22.9728 -9.4593,-52.3646 0,-25.3377 9.4593,-46.9592 9.4595,-21.9593 26.0135,-37.8376 16.554,-16.2162 38.8511,-25.3378 22.635,-9.4594 48.6485,-9.4594 16.216,0 31.0808,3.7162 14.8648,3.3784 27.3648,10.473 12.8377,6.7567 22.9729,16.5539 10.135,9.4594 16.554,21.6215 l -48.9864,37.4998 q -7.0945,-14.1891 -21.2836,-22.635 -14.1892,-8.7837 -30.0675,-8.7837 -11.8242,0 -21.6215,4.7297 -9.7972,4.7297 -16.8918,13.1756 -7.0945,8.4459 -11.1485,20.2702 -4.054,11.4864 -4.054,25.3377 0,14.1891 4.054,25.6755 4.054,11.4864 11.1485,19.9324 7.4325,8.108 17.5674,12.8377 10.1353,4.3919 22.6352,4.3919 28.716,0 50.6753,-23.6485 h -41.5538 v -47.2971 h 98.6481 v 127.7021 h -54.3916 z" />
      <path
         inkscape:connector-curvature="0"
         id="path4666"
         style="font-style:normal;font-variant:normal;font-weight:900;font-stretch:normal;font-size:432.58425903px;line-height:56.32607651px;font-family:Raleway;-inkscape-font-specification:'Raleway Heavy';letter-spacing:0px;word-spacing:0px;fill:#ffffff;fill-opacity:1;stroke:none;stroke-width:1.75956321px;stroke-linecap:butt;stroke-linejoin:miter;stroke-opacity:1"
         d="m 1563.6786,2715.4307 v -62.1619 h 52.0268 v 62.1619 z" />
      <path
         inkscape:connector-curvature="0"
         id="path4668"
         style="font-style:normal;font-variant:normal;font-weight:900;font-stretch:normal;font-size:432.58425903px;line-height:56.32607651px;font-family:Raleway;-inkscape-font-specification:'Raleway Heavy';letter-spacing:0px;word-spacing:0px;fill:#ffffff;fill-opacity:1;stroke:none;stroke-width:1.75956321px;stroke-linecap:butt;stroke-linejoin:miter;stroke-opacity:1"
         d="m 1788.8616,2532.9992 h -68.9187 v 182.4315 h -65.8779 v -182.4315 h -69.2564 v -57.4322 h 204.053 z" />
      <path
         inkscape:connector-curvature="0"
         id="path4670"
         style="font-style:normal;font-variant:normal;font-weight:900;font-stretch:normal;font-size:432.58425903px;line-height:56.32607651px;font-family:Raleway;-inkscape-font-specification:'Raleway Heavy';letter-spacing:0px;word-spacing:0px;fill:#ffffff;fill-opacity:1;stroke:none;stroke-width:1.75956321px;stroke-linecap:butt;stroke-linejoin:miter;stroke-opacity:1"
         d="M 1812.5259,2715.4307 V 2475.567 h 110.1346 q 17.5675,0 32.4323,7.4324 14.8648,7.0946 25.3377,18.9188 10.8109,11.4865 16.8918,26.6891 6.081,14.8648 6.081,30.0674 0,20.9458 -9.1215,39.189 -9.1217,17.9053 -25.3378,29.3917 l 50.6754,88.1753 h -74.3239 l -42.2294,-73.6483 h -24.6621 v 73.6483 z m 65.8781,-131.0805 h 41.5539 q 6.0809,0 11.1485,-6.7567 5.4055,-6.7567 5.4055,-18.9188 0,-12.4999 -6.0812,-18.9188 -6.081,-6.7567 -12.162,-6.7567 h -39.8647 z" />
      <path
         inkscape:connector-curvature="0"
         id="path4672"
         style="font-style:normal;font-variant:normal;font-weight:900;font-stretch:normal;font-size:432.58425903px;line-height:56.32607651px;font-family:Raleway;-inkscape-font-specification:'Raleway Heavy';letter-spacing:0px;word-spacing:0px;fill:#ffffff;fill-opacity:1;stroke:none;stroke-width:1.75956321px;stroke-linecap:butt;stroke-linejoin:miter;stroke-opacity:1"
         d="m 2120.9913,2475.567 h 60.1349 l 83.1075,239.8637 h -66.8914 l -14.527,-46.9593 h -63.8511 l -14.189,46.9593 h -67.2295 z m 51.351,148.9858 -21.2837,-74.324 -22.2971,74.324 z" />
      <path
         inkscape:connector-curvature="0"
         id="path4674"
         style="font-style:normal;font-variant:normal;font-weight:900;font-stretch:normal;font-size:432.58425903px;line-height:56.32607651px;font-family:Raleway;-inkscape-font-specification:'Raleway Heavy';letter-spacing:0px;word-spacing:0px;fill:#ffffff;fill-opacity:1;stroke:none;stroke-width:1.75956321px;stroke-linecap:butt;stroke-linejoin:miter;stroke-opacity:1"
         d="M 2284.4935,2715.4307 V 2475.567 h 65.8781 v 239.8637 z" />
      <path
         inkscape:connector-curvature="0"
         id="path4676"
         style="font-style:normal;font-variant:normal;font-weight:900;font-stretch:normal;font-size:432.58425903px;line-height:56.32607651px;font-family:Raleway;-inkscape-font-specification:'Raleway Heavy';letter-spacing:0px;word-spacing:0px;fill:#ffffff;fill-opacity:1;stroke:none;stroke-width:1.75956321px;stroke-linecap:butt;stroke-linejoin:miter;stroke-opacity:1"
         d="m 2457.2648,2597.5259 v 117.9048 h -65.8781 V 2475.567 h 51.3512 l 96.2833,121.9589 V 2475.567 h 65.8779 v 239.8637 h -52.3644 z" />
      <path
         inkscape:connector-curvature="0"
         id="path4678"
         style="font-style:normal;font-variant:normal;font-weight:900;font-stretch:normal;font-size:432.58425903px;line-height:56.32607651px;font-family:Raleway;-inkscape-font-specification:'Raleway Heavy';letter-spacing:0px;word-spacing:0px;fill:#ffffff;fill-opacity:1;stroke:none;stroke-width:1.75956321px;stroke-linecap:butt;stroke-linejoin:miter;stroke-opacity:1"
         d="M 2640.0834,2715.4307 V 2475.567 h 65.8782 v 239.8637 z" />
      <path
         inkscape:connector-curvature="0"
         id="path4680"
         style="font-style:normal;font-variant:normal;font-weight:900;font-stretch:normal;font-size:432.58425903px;line-height:56.32607651px;font-family:Raleway;-inkscape-font-specification:'Raleway Heavy';letter-spacing:0px;word-spacing:0px;fill:#ffffff;fill-opacity:1;stroke:none;stroke-width:1.75956321px;stroke-linecap:butt;stroke-linejoin:miter;stroke-opacity:1"
         d="m 2806.8551,2597.5259 v 117.9048 h -65.8779 V 2475.567 h 51.351 l 96.2834,121.9589 V 2475.567 h 65.8779 v 239.8637 h -52.3646 z" />
      <path
         inkscape:connector-curvature="0"
         id="path4682"
         style="font-style:normal;font-variant:normal;font-weight:900;font-stretch:normal;font-size:432.58425903px;line-height:56.32607651px;font-family:Raleway;-inkscape-font-specification:'Raleway Heavy';letter-spacing:0px;word-spacing:0px;fill:#ffffff;fill-opacity:1;stroke:none;stroke-width:1.75956321px;stroke-linecap:butt;stroke-linejoin:miter;stroke-opacity:1"
         d="m 3158.5108,2695.4983 q -25.6754,21.6215 -59.1213,21.6215 -23.3106,0 -44.5944,-8.108 -21.2837,-8.4459 -37.1619,-24.3242 -15.8783,-15.8783 -25.3378,-38.8512 -9.4593,-22.9728 -9.4593,-52.3646 0,-25.3377 9.4593,-46.9592 9.4595,-21.9593 26.0134,-37.8376 16.554,-16.2162 38.8513,-25.3378 22.635,-9.4594 48.6482,-9.4594 16.2162,0 31.0811,3.7162 14.8648,3.3784 27.3646,10.473 12.8378,6.7567 22.9729,16.5539 10.1351,9.4594 16.554,21.6215 l -48.9862,37.4998 q -7.0947,-14.1891 -21.2836,-22.635 -14.1893,-8.7837 -30.0676,-8.7837 -11.8243,0 -21.6215,4.7297 -9.7973,4.7297 -16.8918,13.1756 -7.0945,8.4459 -11.1486,20.2702 -4.054,11.4864 -4.054,25.3377 0,14.1891 4.054,25.6755 4.0541,11.4864 11.1486,19.9324 7.4324,8.108 17.5674,12.8377 10.1352,4.3919 22.6351,4.3919 28.7161,0 50.6755,-23.6485 h -41.5538 v -47.2971 h 98.6481 v 127.7021 h -54.3917 z" />
    </g>
  </g>
</svg>
