<?xml version="1.0" encoding="utf-8"?>
<!-- Generated by IcoMoon.io -->
<!DOCTYPE svg PUBLIC "-//W3C//DTD SVG 1.1//EN" "http://www.w3.org/Graphics/SVG/1.1/DTD/svg11.dtd">
<svg version="1.1" xmlns="http://www.w3.org/2000/svg" xmlns:xlink="http://www.w3.org/1999/xlink" width="1024" height="1024" viewBox="0 0 1024 1024"><g id="icomoon-ignore">
</g>
<path d="M35.926 348.758c-2.377 1.116-4.802 3.589-5.821 5.967-0.728 1.891-16.249 180.391-16.249 187.181 0.048 7.034 4.656 11.593 11.787 11.593 3.686 0 4.414-0.339 14.746-7.373 25.918-17.497 64.325-29.365 93.427-29.365 3.086 0 6.068 0.133 8.919 0.408 30.791 2.963 57.029 58.656 57.029 118.599 0 2.853-0.059 5.716-0.18 8.582-2.465 57.123-43.099 102.745-87.78 102.745-4.567 0-9.175-0.477-13.79-1.466-7.784-1.614-25.831-8.011-25.831-9.012 0-0.022 0.009-0.041 0.027-0.058 0.097-0.146 1.795-0.679 3.783-1.213 26.086-7.226 38.713-29.316 38.713-51.745 0-24.7-15.312-49.81-44.825-55.936-4.236-0.878-8.362-1.292-12.354-1.292-33.501 0-57.526 29.219-57.526 59.704 0 14.505 5.438 29.296 17.882 41.363 38.964 37.826 86.878 58.806 132.227 58.806 8.79 0 17.484-0.788 25.997-2.395 81.427-15.302 132.882-80.014 132.882-146.311 0-28.484-9.498-57.26-30.197-82.536-32.786-40.031-86.321-61.724-141.232-61.724-31.119 0-62.68 6.967-91.157 21.512-3.468 1.782-6.393 3.11-6.674 3.11-0.010 0-0.016-0.002-0.020-0.005s-0.006-0.034-0.006-0.087c0-2.976 6.559-81.261 6.797-81.499l0.008-0.001c0.208 0 4.118 1.099 8.771 2.523 32.741 9.837 71.604 14.967 105.986 14.967 24.959 0 47.556-2.703 63.734-8.273 27.6-9.507 48.359-30.364 66.695-66.937 5.148-10.267 7.499-16.067 7.499-20.209 0-2.845-1.109-4.908-3.183-7.1-2.166-2.273-4.318-3.381-7.594-3.381-2.664 0-6.072 0.733-10.838 2.169-39.362 11.763-79.694 17.644-118.461 17.644s-75.972-5.881-109.076-17.644c-4.292-1.518-7.301-2.246-9.757-2.246-1.624 0-3.006 0.318-4.358 0.936zM157.432 759.404c0 0.291-3.686 2.183-4.22 2.183-0.020-0.005-0.030-0.015-0.030-0.030 0-0.129 0.736-0.617 1.824-1.183 1.608-0.868 2.149-1.16 2.333-1.16 0.093 0 0.093 0.076 0.093 0.19zM154.494 819.143v0zM154.494 321.479v0z"></path>
</svg>
