<?xml version="1.0" encoding="utf-8"?>
<!-- Generated by IcoMoon.io -->
<!DOCTYPE svg PUBLIC "-//W3C//DTD SVG 1.1//EN" "http://www.w3.org/Graphics/SVG/1.1/DTD/svg11.dtd">
<svg version="1.1" xmlns="http://www.w3.org/2000/svg" xmlns:xlink="http://www.w3.org/1999/xlink" width="353" height="1024" viewBox="0 0 353 1024"><g id="icomoon-ignore">
</g>
<path d="M130.723 348.758c-5.772 2.667-6.5 4.948-7.034 21.1-2.813 84.4-32.838 167.344-88.279 243.788-6.694 9.168-15.764 20.906-19.984 25.805-15.073 17.524-15.426 17.815-15.426 22.131 0 0.212 0.001 0.433 0.001 0.667 0 3.59 1.116 6.258 3.444 8.489 3.045 2.875-2.095 3.060 60.012 3.060 9.133 0 19.721-0.004 32.003-0.004h86.776l-0.145 5.432c-0.097 3.007-0.291 9.847-0.388 15.183-0.679 30.509-10.526 45.255-40.405 60.34-6.349 3.205-9.74 7.859-9.74 12.543 0 2.689 1.117 5.388 3.434 7.829 3.106 3.231-4.318 3.449 67.724 3.449 11.227 0 24.385-0.005 39.812-0.005s28.585 0.005 39.812 0.005c72.042 0 64.618-0.218 67.724-3.449 2.317-2.441 3.434-5.14 3.434-7.829 0-4.685-3.393-9.338-9.74-12.543-29.879-15.085-39.726-29.831-40.405-60.34-0.097-5.336-0.291-12.175-0.388-15.183l-0.145-5.432h18.092c21.101 0 21.439-0.048 25.854-4.414 3.039-3.058 4.464-7.076 4.464-11.060 0-6.189-3.439-12.297-9.605-14.598-2.426-0.922-3.686-0.971-20.761-0.971h-18.189v-102.491c0-15.481 0.005-28.682 0.005-39.947 0-72.283-0.218-64.823-3.449-67.929-2.185-2.058-5.342-3.105-8.433-3.105-2.808 0-5.56 0.865-7.477 2.62-2.086 1.939-98.757 110.543-99.727 112.095-0.97 1.455-0.97 2.426-1.115 50.106l-0.097 48.65h-68.684c-61.544 0-68.109-0.043-68.109-0.704 0-0.039 0.022-0.079 0.056-0.121 0.388-0.485 8.634-9.798 18.383-20.761 9.75-10.914 33.76-37.882 53.307-59.904 19.548-22.021 37.786-42.442 40.502-45.352 2.716-2.959 14.648-16.25 26.532-29.588 41.181-46.274 81.246-91.287 94.003-105.499 13.873-15.522 14.6-16.541 14.6-21.342 0-5.045-2.57-9.071-6.887-10.866-1.427-0.611-34.825-0.895-70.291-0.895-40.453 0-83.598 0.369-85.071 1.040zM176.749 819.143v0zM176.749 321.479v0z"></path>
</svg>
