<?xml version="1.0" encoding="UTF-8" standalone="no"?>
<svg xmlns:rdf="http://www.w3.org/1999/02/22-rdf-syntax-ns#" xmlns="http://www.w3.org/2000/svg" xml:space="preserve" height="16.141" viewBox="0 0 31.5525 16.14125" width="31.552" version="1.1" xmlns:cc="http://creativecommons.org/ns#" xmlns:dc="http://purl.org/dc/elements/1.1/"><g transform="matrix(1.25 0 0 -1.25 -355.38 531.86)" fill="#231f20"><path d="m297.28 425.49h-2.402v-8.833h2.402v8.833z"/><path d="m309.55 425.49h-2.403v-8.833h2.403v8.833z"/><path d="m300.62 418.78h3.173v4.591h-5.575v2.122l7.139 0.002c0.463 0 0.84-0.377 0.84-0.842l-0.002-7.154c0-0.465-0.375-0.84-0.842-0.84h-7.135v5.499h2.402v-3.378z"/><path d="m293.09 425.49-1.563-0.002h-7.226v-8.834h2.401v6.712h1.212v-6.712h2.403v6.712h1.21v-6.712h2.404l0.002 7.994c0 0.465-0.377 0.842-0.843 0.842"/><path d="m309.55 415.75h-25.242v-3.175h25.242v3.175z"/></g></svg>
