<?xml version="1.0" encoding="utf-8"?>
<!-- Generated by IcoMoon.io -->
<!DOCTYPE svg PUBLIC "-//W3C//DTD SVG 1.1//EN" "http://www.w3.org/Graphics/SVG/1.1/DTD/svg11.dtd">
<svg version="1.1" xmlns="http://www.w3.org/2000/svg" xmlns:xlink="http://www.w3.org/1999/xlink" width="356" height="1024" viewBox="0 0 356 1024"><g id="icomoon-ignore">
</g>
<path d="M149.61 340.609c-51.658 5.918-108.263 37.592-132.517 74.165-11.338 17.099-17.094 37.469-17.094 57.593 0 16.638 3.935 33.107 11.904 47.42 18.529 33.323 60.923 61.747 111.756 74.94 13.544 3.527 26.637 5.308 39.797 5.308 21.053 0 42.278-4.562 65.799-13.844 3.638-1.455 6.742-2.619 6.937-2.619 0.111 0 0.162 0.518 0.162 1.464 0 6.935-2.757 36.827-5.062 53.346-6.887 49.476-17.801 82.556-33.031 100.163-13.644 15.78-34.69 23.98-58.235 23.98-15.464 0-32.006-3.537-48.235-10.786-2.037-0.897-3.056-1.358-3.056-1.728s1.019-0.649 3.056-1.182c22.833-5.87 38.705-28.973 38.705-53.008 0-4.762-0.623-9.56-1.938-14.268-7.661-27.569-30.846-41.123-54.303-41.123-24.664 0-49.629 14.985-57.162 44.421-1.35 5.29-2.027 10.414-2.027 15.383 0 16.99 7.915 32.166 23.903 45.977 30.974 26.714 67.333 40.288 106.375 40.288 21.854 0 44.549-4.253 67.613-12.834 74.601-27.697 128.539-90.608 141.054-164.385 2.023-11.879 3.212-31.181 3.212-47.695 0-8.030-0.282-15.402-0.885-20.94-3.977-36.864-13.29-65.676-30.655-94.537-36.781-61.167-107.698-106.136-164.637-106.136-3.882 0-7.699 0.209-11.437 0.636zM176.53 365.25c18.481 5.093 26.047 16.541 33.42 50.737 4.784 22.071 7.115 40.562 7.115 58.959 0 13.502-1.255 26.956-3.719 41.738-7.615 45.837-19.208 59.612-50.154 59.612-33.566 0-46.128-18.286-52.579-76.638-0.807-7.194-1.186-14.874-1.186-22.769 0-41.448 10.439-88.826 24.129-103.005 6.246-6.493 18.165-10.29 30.005-10.29 4.436 0 8.86 0.533 12.97 1.656zM178.612 819.143v0zM178.612 321.479v0z"></path>
</svg>
