<?xml version="1.0" encoding="utf-8"?>
<!-- Generated by IcoMoon.io -->
<!DOCTYPE svg PUBLIC "-//W3C//DTD SVG 1.1//EN" "http://www.w3.org/Graphics/SVG/1.1/DTD/svg11.dtd">
<svg version="1.1" xmlns="http://www.w3.org/2000/svg" xmlns:xlink="http://www.w3.org/1999/xlink" width="333" height="1024" viewBox="0 0 333 1024"><g id="icomoon-ignore">
</g>
<path d="M116.51 339.93c-19.208 1.795-27.114 3.493-48.020 10.283-15.221 4.922-24.399 7.336-31.295 7.336-6.355 0-10.771-2.050-16.192-6.074-3.341-2.475-6.823-3.673-9.984-3.673-4.457 0-8.273 2.382-10.146 6.923-0.582 1.382-0.873 28.29-0.873 55.199s0.291 53.816 0.873 55.199c1.844 4.461 6.423 6.97 11.009 6.97 2.894 0 5.791-0.999 8.005-3.139 2.231-2.134 2.619-2.958 4.947-11.010 8.537-29.588 20.906-48.797 33.663-52.192 1.551-0.414 3.2-0.617 4.931-0.617 8.824 0 19.779 5.291 30.769 15.024 24.714 21.858 55.737 32.765 88.306 32.765 33.848 0 69.365-11.779 101.204-35.288l4.413-3.298-2.91 5.191c-21.1 37.252-46.614 67.47-87.455 103.655-80.034 70.818-127.423 157.157-129.606 236.027-0.036 1.377-0.057 2.641-0.057 3.804 0 9.653 1.395 12.333 6.459 14.628 1.528 0.703 31.94 1.055 62.347 1.055s60.808-0.352 62.311-1.055c6.063-2.813 6.597-4.608 7.082-24.544 1.067-44.771 8.004-86.776 20.906-126.355 9.216-28.231 18.528-47.632 38.707-80.519 21.973-35.894 46.904-101.764 64.706-171.272 1.934-7.516 2.958-12.763 2.958-16.558 0-5.437-2.102-7.895-6.645-9.78-1.704-0.714-3.293-1.081-4.823-1.081-4.087 0-7.751 2.627-12.057 8.309-13.969 18.577-31.625 29.006-50.931 30.122-1.041 0.059-2.029 0.091-2.972 0.091-7.446 0-12.151-1.98-19.34-7.707-30.435-24.278-71.916-38.964-108.376-38.964-4.041 0-8.021 0.18-11.917 0.548zM166.785 819.143v0zM166.785 321.479v0z"></path>
</svg>
