<svg width="54" height="699" viewBox="0 0 54 699" fill="none" xmlns="http://www.w3.org/2000/svg">
<path fillRule="evenodd" clipRule="evenodd" d="M41.2451 8.53778C33.5395 18.7441 22.5005 42.6234 18.0842 55.0876C11.4614 81.2363 9.25384 113.041 11.4614 143.74C12.5431 153.935 14.7518 176.651 18.0842 194.828C23.5821 238.037 24.7081 256.214 24.7081 274.392C23.5821 303.928 15.8766 327.75 3.7127 343.658C1.50401 345.927 0.422375 348.197 0.422375 349.36C0.422375 350.523 1.50401 352.792 3.7127 355.062C15.8766 370.97 23.5821 394.792 24.7081 423.222C24.7081 442.505 23.5821 460.683 18.0842 502.728C14.7518 522.069 12.5431 544.785 11.4614 553.874C9.25384 585.679 11.4614 617.483 18.0842 642.469C23.5821 662.916 43.4526 698.153 48.9938 698.153C51.2014 698.153 53.409 695.884 53.409 693.603C53.409 692.451 51.2014 689.064 48.9938 685.632C35.7471 666.348 30.206 647.019 27.9984 617.483C27.9984 599.306 29.1233 582.246 34.6212 539.083C36.8288 522.069 39.0375 501.622 40.1623 493.639C44.5786 439.118 35.7471 392.523 13.669 358.449C10.3355 353.899 8.12788 349.36 8.12788 349.36C8.12788 349.36 10.3355 344.821 13.669 340.271C35.7471 306.197 44.5786 259.601 40.1623 203.917C39.0375 197.098 36.8288 176.651 34.6212 158.485C29.1233 116.474 27.9984 99.4138 27.9984 81.2363C30.206 51.7007 35.7471 32.3715 48.9938 13.0878C53.409 6.26844 54.5349 3.99911 52.3273 1.72977C48.9938 -0.550961 46.7862 0.566604 41.2451 8.53778Z" fill="black"/>
</svg>
