<svg width="157" height="236" viewBox="0 0 157 236" fill="none" xmlns="http://www.w3.org/2000/svg">
<path d="M156.202 185.816C154.999 205.003 144.593 224.577 126.552 231.73C111.084 237.622 91.5893 238.517 78.1432 227.301C68.0827 219.632 64.2378 202.181 74.7603 193.171C84.8115 183.363 104.148 192.21 102.991 206.64C106.93 216.545 86.5002 222.629 97.2413 229.572C109.598 232.888 122.197 222.489 125.369 210.403C129.98 193.061 129.735 174.344 125.696 156.906C123.523 148.307 118.37 134.953 107.348 138.435C92.9222 141.885 84.8283 156.566 80.287 169.918C77.6593 150.996 66.1099 134.634 52.8322 121.872C52.8322 159.88 52.8322 197.888 52.8322 235.895L44.5683 235.939C44.5683 157.828 44.5683 78.1325 44.5683 0.0216393L52.8322 0.014513C52.8322 37.484 52.8322 76.5019 52.8322 113.971C66.0002 101.397 77.5986 85.3049 80.0887 66.5386C84.8463 80.5354 94.052 95.9904 109.612 98.1604C121.048 98.8085 124.316 84.4419 126.597 75.494C129.596 58.5835 129.923 40.5981 124.72 24.1121C120.998 12.5204 108.766 3.02949 96.7099 6.14195C86.9706 13.454 106.185 18.7432 102.937 28.167C105.011 41.7009 88.75 52.285 77.5425 45.2713C65.4031 38.4201 66.288 19.9909 75.644 11.0829C82.0128 4.30548 94.1304 -0.0702605 103.007 0.00144805C112.061 0.0746161 117.343 0.764036 125.448 3.67684C143.593 10.3431 154.556 29.5581 156.049 48.7038C158.791 70.4147 147 94.1049 127.138 102.677C114.221 107.838 99.2807 103.373 89.3726 93.8989C87.7531 103.406 83.6412 112.476 78.5467 119.036C82.6605 125.943 87.11 137.06 89.3812 140.868C101.785 129.228 123.698 127.824 136.609 139.364C149.756 150.476 157.955 168.167 156.202 185.816Z" fill="black"/>
<path d="M26.8599 236H0V0H26.8599V236Z" fill="black"/>
</svg>
