<svg width="150" height="416" viewBox="0 0 150 416" fill="none" xmlns="http://www.w3.org/2000/svg">
<path d="M86.4097 0.218451C84.5767 0.898885 77.3618 7.91028 73.1959 13.0582C59.5243 29.9487 52.2719 51.0928 52.2719 73.1741C52.2719 78.8542 52.751 84.5992 53.7265 90.3478C53.9748 91.8587 57.6904 109.658 58.4631 113.07C58.5624 113.524 59.523 117.993 60.5833 123.013L62.5016 132.14L57.1801 137.554C41.9348 153.025 29.4707 167.841 17.1312 185.138C5.66509 201.209 0 219.493 0 237.534C0 258.525 7.67372 279.186 22.818 295.637C38.1505 312.305 60.6564 321.83 82.6719 321.83C88.5398 321.83 94.371 321.153 100.026 319.755C101.088 319.492 101.982 319.287 102.085 319.287C102.092 319.287 102.096 319.289 102.096 319.289C102.135 319.34 106.982 342.176 107.592 345.233C108.882 351.63 109.526 357.61 109.526 363.155C109.526 369.406 108.707 375.1 107.068 380.218C101.787 396.715 85.4979 407.85 68.0339 407.85C65.7087 407.85 63.3632 407.654 61.0208 407.244C57.195 406.578 52.4832 405.078 49.8279 403.67L49.2431 403.369L50.3278 403.355C62.8181 403.291 72.99 392.743 72.99 379.842V379.828C72.99 365.04 61.0281 355.394 48.4339 355.394C42.2129 355.394 35.8348 357.747 30.6723 362.999C25.5582 368.198 22.9665 374.753 22.9665 381.31C22.9665 387.102 24.9874 392.895 29.0769 397.755C39.1788 409.771 53.6614 416 68.1698 416C79.2282 416 90.3036 412.379 99.4635 404.941C111.593 395.081 117.623 381.271 117.623 363.255C117.623 360.017 117.43 356.64 117.04 353.13C116.541 348.547 115.92 345.238 112.815 330.609C111.206 322.979 109.886 316.699 109.886 316.648C109.886 316.584 110.52 316.271 111.294 315.942C134.393 305.955 150 282.988 150 259.272C150 258.686 149.989 258.096 149.971 257.508C148.985 227.321 127.996 203.844 98.6656 200.155C97.7565 200.04 95.6034 199.986 93.3455 199.986C90.6134 199.986 87.7287 200.066 86.714 200.217C86.0204 200.317 85.4229 200.398 85.2852 200.398C85.2681 200.398 85.2563 200.396 85.255 200.393C85.2419 200.379 83.2341 190.876 80.7807 179.282L76.3173 158.196L78.5476 156.019C79.7813 154.81 82.4619 152.217 84.518 150.241C106.953 128.728 118.122 106.132 119.869 78.7019C119.968 77.1349 120.017 75.5392 120.017 73.9152C120.017 50.7758 110.088 22.4484 95.924 6.1572C92.2174 1.88807 89.703 0 87.6082 0C87.1954 0 86.7976 0.0720568 86.4119 0.217082L86.4097 0.218451ZM97.379 34.9138C101.056 35.404 104.161 37.4809 105.569 40.3636C106.909 43.1063 107.726 48.4842 107.726 53.6627C107.726 55.3277 107.641 56.9727 107.462 58.5028C105.307 77.0319 94.5607 97.8667 76.9115 117.717C75.2393 119.605 69.5661 125.499 69.4225 125.499L69.4203 125.498C69.3209 125.397 64.2334 101.025 63.9606 99.3526C63.2711 95.0615 62.9297 90.8061 62.9297 86.6327C62.9297 73.4728 66.3165 61.1575 72.8098 51.2661C79.2087 41.4947 88.696 34.8175 95.9118 34.8175C96.4131 34.8175 96.9017 34.8504 97.3763 34.9138H97.379ZM71.8489 176.303C73.1079 182.269 74.2043 187.494 74.3059 187.91C74.7042 189.652 77.3229 202.117 77.3229 202.247C77.2981 202.26 76.9752 202.373 76.6 202.499C55.9293 209.453 42.7747 228.471 42.7747 248.842C42.7747 253.47 43.4548 258.166 44.8759 262.809C48.7265 275.384 58.0508 285.857 69.9418 290.981C70.8793 291.384 71.7486 291.582 72.519 291.582C74.2418 291.582 75.4705 290.601 75.8517 288.765C75.9158 288.457 75.9456 288.167 75.9456 287.893C75.9456 286.526 75.1414 285.507 73.2316 284.321C64.307 278.788 59.8594 269.506 59.8594 260.013C59.8594 250.351 64.4687 240.47 73.6556 234.107C76.0937 232.422 81.9643 229.611 82.9799 229.611C83.0481 229.611 83.096 229.624 83.1181 229.65C83.1425 229.675 84.5753 236.41 86.309 244.617C88.0426 252.824 89.5635 260.038 89.6981 260.668C89.8363 261.284 90.021 262.165 90.123 262.62C90.2251 263.075 91.1693 267.543 92.2287 272.563C93.2999 277.587 95.6183 288.6 97.4156 297.036C99.1989 305.482 100.656 312.457 100.656 312.532C100.656 312.884 95.2345 314.344 91.9307 314.899C88.8771 315.408 85.8271 315.659 82.806 315.659C59.0971 315.659 37.134 300.334 27.5501 276.115C24.3 267.891 22.6978 259.101 22.6978 250.212C22.6978 236.598 26.4582 222.754 33.8189 210.376C37.5454 204.121 47.2426 191.153 56.2684 180.354C60.6433 175.116 69.2306 165.438 69.493 165.438C69.5318 165.438 70.5885 170.322 71.8484 176.301L71.8489 176.303ZM97.0778 228.455C117.812 230.755 132.903 249.165 132.903 269.691C132.903 272.993 132.512 276.35 131.692 279.703C129.16 290.051 122.541 299.593 113.355 306.113C111.823 307.211 108.547 309.228 108.307 309.228C108.299 309.228 108.294 309.226 108.294 309.221C108.255 309.107 106.635 301.491 106.138 299.124C105.95 298.193 102.498 281.891 98.484 262.921C94.4704 243.938 91.1802 228.38 91.1802 228.341C91.1802 228.25 91.7564 228.206 92.5999 228.206C93.835 228.206 95.6486 228.298 97.0765 228.454L97.0778 228.455Z" fill="black"/>
</svg>
