<svg width="150" height="182" viewBox="0 0 150 182" fill="none" xmlns="http://www.w3.org/2000/svg">
<path d="M52.6712 0.0929658C31.7194 1.15957 14.2729 11.3257 5.75793 27.4191C2.65704 33.2918 1.23576 39.4164 1.23576 45.217C1.23576 60.646 11.2921 73.7814 26.5488 73.7814C40.0627 73.7722 49.0508 62.5379 49.0508 50.8804C49.0508 45.3331 47.0154 39.6897 42.4642 35.1146C38.1405 30.7686 32.2907 28.5015 26.4884 28.5015C22.4492 28.5015 18.4334 29.6001 14.9715 31.8611C14.601 32.1013 14.3651 32.2577 14.259 32.2577C14.2155 32.2577 14.1937 32.2313 14.1937 32.1734C14.1937 31.9838 14.4251 31.4572 14.8773 30.4165C21.6811 14.8681 38.3399 5.31798 54.4192 5.31798C61.098 5.31798 67.6769 6.96603 73.408 10.516C85.6701 18.1036 92.6272 31.2671 94.6015 50.641C94.7222 51.802 94.7826 55.7241 94.7826 59.6815C94.7826 63.639 94.7222 67.6321 94.6015 68.9347C90.4783 114.014 58.2043 153.789 9.29022 174.013C6.83227 175.026 2.01078 176.875 1.82277 176.875C0.814888 176.875 0 178.358 0 179.646C0 180.092 0.0974654 180.515 0.318701 180.844C0.8387 181.609 1.20447 182 2.32145 182C3.51291 182 5.55912 181.555 9.55908 180.642C69.0032 167.06 115.554 121.386 123.303 69.002C123.854 65.2831 124.129 61.6786 124.129 58.1927C124.129 39.85 116.52 24.7912 101.532 13.5939C90.3631 5.26454 72.6662 0 56.3704 0C55.128 0 53.8936 0.0308958 52.6714 0.0929658H52.6712ZM140.105 22.2478C135.69 22.8309 132.758 26.7789 132.758 30.9287C132.758 32.4473 133.15 33.9932 134.007 35.4113C135.666 38.1516 138.504 39.4965 141.338 39.4965C144.425 39.4965 147.509 37.9016 149.063 34.7767C149.707 33.4855 150 32.1561 150 30.8669C150 26.2598 146.25 22.1659 141.321 22.1659C140.922 22.1659 140.517 22.1924 140.105 22.2478ZM140.105 76.252C135.69 76.8351 132.758 80.7828 132.758 84.9329C132.758 86.4518 133.15 87.9974 134.007 89.4153C135.666 92.1558 138.504 93.5008 141.338 93.5008C144.425 93.5008 147.509 91.9059 149.063 88.7809C149.707 87.4897 150 86.1604 150 84.8711C150 80.264 146.25 76.1702 141.321 76.1702C140.922 76.1702 140.517 76.1969 140.105 76.2523V76.252Z" fill="black"/>
</svg>
