<svg width="39" height="120" viewBox="0 0 39 120" fill="none" xmlns="http://www.w3.org/2000/svg">
<path d="M1.78886 0.206171C1.14349 0.453172 0.433399 1.1664 0.184338 1.81581L0 2.30963V117.705L0.184338 118.199C0.599378 119.287 1.68742 120 2.9509 120C4.10348 120 4.36181 119.845 6.38137 117.961C9.86711 114.714 11.2964 113.424 17.3827 108.019C28.642 98.0237 32.7089 93.6066 35.7704 88.0553C37.9581 84.0975 39 80.0302 39 76.2746C39 69.4079 35.517 63.5836 29.1861 61.3786C27.0861 60.6479 24.93 60.286 22.7478 60.286C17.2551 60.286 11.5977 62.5783 6.25193 67.0486L5.90161 67.332V34.821C5.90161 2.37253 5.90161 2.31 5.71727 1.81526C5.30205 0.700724 4.12276 0 2.90157 0C2.52826 0 2.15105 0.0654745 1.79035 0.204516L1.78886 0.206171ZM18.7476 69.7011C22.3315 70.4209 23.6445 72.2489 23.6445 76.5604V76.6059C23.6259 85.1838 16.8384 98.0598 6.41791 109.255L5.9107 109.803L5.90143 93.3511V76.8989L6.5837 75.8838C8.98121 72.3171 12.1997 70.1496 15.9527 69.5828C16.1815 69.5455 16.479 69.5284 16.8054 69.5284C17.4385 69.5284 18.1811 69.5933 18.7469 69.7018L18.7476 69.7011Z" fill="black"/>
</svg>
