<svg width="72" height="62" viewBox="0 0 72 62" fill="none" xmlns="http://www.w3.org/2000/svg">
<path d="M42.7994 0.106101C22.7395 1.55627 3.17591 17.7266 0.348826 35.2055C0.113902 36.6622 0 38.0793 0 39.4515C0 52.8672 10.8901 62 26.1681 62C29.003 62 31.9887 61.6857 35.0841 61.0257C53.3636 57.1439 69.1398 42.3801 71.6541 26.8096C71.887 25.3641 72 23.9551 72 22.5881C72 9.30953 61.3141 0 45.7206 0C44.7649 0 43.791 0.035065 42.7994 0.106101ZM61.4029 8.87275C63.1939 9.43385 64.0284 10.7422 64.0284 12.5869C64.0284 18.1989 56.3055 28.7743 44.3104 38.3677C32.5718 47.7616 19.9276 53.4548 13.0818 53.4548C9.89748 53.4548 7.96782 52.2229 7.96782 49.5584C7.96782 49.4471 7.97115 49.3333 7.97805 49.2171C8.43121 41.3227 21.3584 26.9188 36.6492 17.2689C45.2757 11.8279 53.8086 8.55422 58.9771 8.55422C59.899 8.55422 60.7134 8.65807 61.4029 8.87275Z" fill="black"/>
</svg>
