<svg width="33" height="127" viewBox="0 0 33 127" fill="none" xmlns="http://www.w3.org/2000/svg">
<path d="M1.72096 0.201914C1.10006 0.445475 0.416981 1.14883 0.1774 1.78915L0 2.27609V94.7861L0.1774 95.2731C0.416981 95.9314 1.10006 96.6258 1.74748 96.8692C2.0026 96.9668 2.1683 97.0431 2.5103 97.0431C3.46441 97.0431 5.79201 96.45 15.2668 94.0736C21.7869 92.4323 27.1716 91.0976 27.2248 91.0976C27.2958 91.0976 27.3225 95.9045 27.3225 107.917C27.3225 110.848 27.3207 113.289 27.3207 115.324C27.3207 126.627 27.3779 125.398 28.1297 126.17C28.6892 126.735 29.424 127 30.1526 127C31.2845 127 32.4014 126.361 32.8224 125.214L33 124.727V31.4955L32.8224 31.0087C32.5828 30.3504 31.8999 29.6557 31.2523 29.4124C30.997 29.3149 30.8315 29.2385 30.4893 29.2385C29.5352 29.2385 27.2076 29.8316 17.733 32.2081C11.2129 33.8403 5.82822 35.184 5.775 35.184C5.70404 35.184 5.67734 30.4766 5.67734 18.7256C5.67734 2.41126 5.67734 2.26698 5.49994 1.78915C5.09905 0.691083 3.96461 0 2.78993 0C2.43074 0 2.0679 0.0645143 1.72096 0.201727V0.201914ZM27.3047 60.4532L27.2782 73.4667L16.5887 76.1451C10.7073 77.6241 5.84596 78.8326 5.78396 78.8326C5.7152 78.8326 5.68904 77.2499 5.68904 71.7062C5.68904 70.099 5.69124 68.1591 5.69526 65.8281L5.72196 52.8147L16.367 50.1452C22.222 48.6662 27.0833 47.4577 27.1718 47.4577L27.1745 47.4575C27.2819 47.4575 27.3117 47.8892 27.3117 53.6841C27.3117 55.4169 27.3091 57.6292 27.3049 60.4529L27.3047 60.4532Z" fill="black"/>
</svg>
