<svg width="37" height="120" viewBox="0 0 37 120" fill="none" xmlns="http://www.w3.org/2000/svg">
<path d="M24.9083 0.163898C24.3951 0.361968 23.8305 0.93395 23.6325 1.45467C23.4859 1.84325 23.4859 1.95333 23.4859 17.0612C23.4859 25.4291 23.4712 32.2789 23.4492 32.2789C23.4271 32.2789 21.1324 32.8362 18.3389 33.5257C15.5528 34.2078 13.2579 34.7725 13.2432 34.7725C13.2286 34.7725 13.2212 28.3552 13.2212 20.508C13.2212 17.8144 13.2231 15.6101 13.2231 13.8033C13.2231 4.67912 13.172 5.69577 12.554 5.07753C12.0917 4.61804 11.4842 4.40243 10.882 4.40243C9.94653 4.40243 9.02327 4.9224 8.67545 5.85484C8.52883 6.24341 8.52883 6.35348 8.52883 21.0873V35.9311L5.17816 36.7524C0.779059 37.8305 0.573789 37.9259 0.170504 39.0039C0.0568347 39.3121 0 41.9559 0 44.5997C0 47.2436 0.0568347 49.8874 0.170504 50.1956C0.493071 51.061 1.37295 51.6404 2.34806 51.6404C2.73668 51.6404 7.02574 50.6723 8.40413 50.2763C8.40685 50.2754 8.40957 50.275 8.41229 50.275C8.52173 50.275 8.52883 51.13 8.52883 62.4432V74.6541L5.17816 75.4756C0.779059 76.5538 0.573789 76.6489 0.170504 77.727C0.0568347 78.0352 0 80.679 0 83.3229C0 85.9667 0.0568347 88.6106 0.170504 88.9186C0.493071 89.7839 1.37295 90.3633 2.34806 90.3633C2.73668 90.3633 7.02574 89.3953 8.40413 88.9993C8.40655 88.9985 8.40897 88.9981 8.41123 88.9981C8.52173 88.9981 8.52883 89.9742 8.52883 103.557C8.52883 106.315 8.52687 108.572 8.52687 110.421C8.52687 119.759 8.57796 118.707 9.19604 119.325C9.65827 119.784 10.2658 120 10.868 120C11.8035 120 12.7267 119.48 13.0746 118.548C13.2212 118.159 13.2212 118.049 13.2212 102.978C13.2212 94.6243 13.2358 87.7965 13.2578 87.7965C13.2724 87.7965 15.5745 87.2318 18.3606 86.5499C21.1541 85.8677 23.449 85.3031 23.4637 85.3031C23.4709 85.3031 23.4856 91.7056 23.4856 99.5308C23.4856 102.217 23.4836 104.416 23.4836 106.218C23.4836 115.318 23.5347 114.306 24.1528 114.925C24.6152 115.384 25.2225 115.6 25.8247 115.6C26.7602 115.6 27.6835 115.08 28.0313 114.147C28.1781 113.759 28.1781 113.649 28.1781 98.9516V84.1445L31.6826 83.2864C35.7811 82.2743 35.8104 82.2671 36.3089 81.7757C36.9465 81.1379 36.9766 81.3366 36.9766 76.934L36.9763 75.4024L36.9766 73.8707C36.9766 69.4683 36.9465 69.6668 36.3089 69.0292C35.8397 68.5672 35.3338 68.3618 34.6519 68.3618C34.2633 68.3618 29.6077 69.418 28.3099 69.7993C28.307 69.8002 28.3041 69.8006 28.3013 69.8006C28.185 69.8006 28.1781 68.9456 28.1781 57.6324V45.4215L31.6826 44.5635C36.243 43.4414 36.4264 43.3607 36.8295 42.2754C36.9433 41.9672 37 39.3234 37 36.6795C37 34.0357 36.9432 31.3919 36.8295 31.0839C36.5069 30.2186 35.6272 29.6392 34.6519 29.6392C34.2633 29.6392 29.6077 30.6953 28.3099 31.0766C28.3075 31.0774 28.3047 31.0778 28.3025 31.0778C28.185 31.0778 28.1781 30.1009 28.1781 16.4821C28.1781 1.96088 28.1781 1.84356 28.0313 1.45498C27.7001 0.562003 26.7623 0 25.7915 0C25.4946 0 25.1947 0.0524655 24.908 0.16405L24.9083 0.163898ZM23.486 58.791C23.486 65.5089 23.4714 71.0019 23.4493 71.0019C23.4272 71.0019 21.1325 71.5592 18.339 72.2487C15.5529 72.9307 13.2581 73.4955 13.2434 73.4955C13.2287 73.4955 13.2213 68.0024 13.2213 61.2918V49.0882L16.5794 48.2667C18.4196 47.8121 20.6927 47.2546 21.6164 47.02C22.5475 46.7853 23.3467 46.5872 23.3979 46.5872H23.3982C23.464 46.5872 23.486 49.0803 23.486 58.7909V58.791Z" fill="black"/>
</svg>
