<svg width="105" height="62" viewBox="0 0 105 62" fill="none" xmlns="http://www.w3.org/2000/svg">
<path d="M46.7033 0.1673C20.0596 1.77059 0 15.0228 0 31.0235C0 48.3986 23.0237 62 52.4457 62C82.0142 62 105 48.0669 105 31.106C105 29.8538 104.875 28.5851 104.618 27.3042C101.436 11.4814 78.8975 0 52.279 0C50.4383 0 48.5778 0.0550919 46.703 0.167075L46.7033 0.1673ZM49.3285 4.14831C63.891 6.38054 75.8409 23.0851 75.8409 38.134C75.8409 41.2488 75.3291 44.2926 74.2223 47.1223C71.3356 54.5149 65.3542 58.09 58.6007 58.09C50.4877 58.09 41.2606 52.9307 34.9454 43.032C30.9136 36.7036 29.0783 30.0613 29.0783 24.083C29.0783 12.8142 35.5989 3.90478 46.2169 3.90478C47.2183 3.90478 48.256 3.98393 49.3282 4.14786L49.3285 4.14831Z" fill="black"/>
</svg>
